<svg width="393" height="47" viewBox="0 0 393 47" fill="none" xmlns="http://www.w3.org/2000/svg">
<path d="M149.891 46.8865C150.508 46.2777 150.927 45.8733 151.336 45.4643C153.181 43.6192 153.872 41.3836 153.522 38.8041C153.32 37.289 153.062 37.0891 151.52 36.8893C147.319 36.3501 143.375 35.0906 139.947 32.4971C137.636 30.7496 135.86 28.593 135.133 25.6789C134.3 22.3325 135.29 19.4649 137.351 16.8947C139.012 14.8264 141.143 13.3438 143.527 12.2609C148.073 10.2019 152.836 9.49547 157.802 9.9463C161.548 10.2856 165.077 11.257 168.354 13.1207C170.429 14.3012 172.238 15.7978 173.581 17.8103C175.993 21.4262 175.993 25.5488 173.554 29.1508C171.584 32.051 168.777 33.8589 165.611 35.1231C164.143 35.7087 162.597 36.1131 161.069 36.5221C160.416 36.6987 160.057 36.959 159.96 37.6747C159.279 42.6246 156.035 45.1343 151.626 46.5054C151.157 46.6495 150.65 46.7239 149.891 46.8865Z" fill="#02BF39"/>
<path d="M57.4774 13.6367C57.6706 12.9534 57.7949 12.4608 57.9468 11.9821C58.4115 10.5459 59.6356 9.68608 61.0116 9.81622C62.429 9.951 63.515 10.9549 63.7037 12.4282C63.8555 13.6041 63.9522 14.7893 63.9614 15.9745C63.989 21.733 64.035 27.4916 63.943 33.2455C63.9107 35.3648 63.6668 37.5121 63.2481 39.5896C62.659 42.5038 60.9334 44.7254 58.1308 45.7107C53.2069 47.4397 48.2185 47.528 43.3681 45.3761C42.2223 44.8648 41.1592 44.0143 40.2711 43.1033C39.7051 42.5224 39.4105 41.5742 39.2219 40.7376C38.9964 39.7337 39.4428 38.8739 40.3355 38.3162C41.2789 37.7305 42.2729 37.7398 43.161 38.3626C43.7731 38.7949 44.2839 39.3944 44.7901 39.9708C47.1969 42.7222 51.4766 43.6006 54.7347 41.9135C55.3927 41.5742 56.0462 41.0583 56.465 40.4588C57.9099 38.3998 57.8501 36.0574 57.6983 33.3245C57.031 33.7614 56.626 33.938 56.3269 34.2354C52.1945 38.3441 45.1536 38.0373 41.1638 32.7761C37.0728 27.3847 37.1879 18.949 41.532 13.7714C45.4896 9.05864 51.5686 8.59851 56.2165 12.656C56.557 12.9534 56.9298 13.2137 57.4774 13.6367ZM57.6016 23.5131C57.6154 21.0405 56.8515 18.9211 55.0982 17.2247C52.6454 14.8544 49.148 14.873 46.6953 17.2433C43.3497 20.4781 43.3635 26.5388 46.7229 29.7597C49.1756 32.1114 52.6823 32.1021 55.1258 29.7271C56.8745 28.0168 57.6246 25.8974 57.6016 23.5131Z" fill="#02BF39"/>
<path d="M237.75 14.0922C237.814 13.079 237.874 12.512 237.878 11.9496C237.888 9.45843 237.86 6.9626 237.897 4.47141C237.911 3.70918 238.003 2.92836 238.219 2.20331C238.633 0.80899 239.613 0.111829 240.943 0.121124C242.301 0.13042 243.548 0.929831 243.907 2.2219C244.155 3.12356 244.289 4.09029 244.289 5.02449C244.257 14.3386 244.188 23.6573 244.123 32.9714C244.119 33.3292 244.105 33.6825 244.068 34.0357C243.879 35.8994 242.991 36.8383 241.353 36.9359C239.425 37.0474 238.357 36.2527 237.943 34.3703C237.842 33.9195 237.809 33.4501 237.694 32.6274C237.041 33.1991 236.567 33.5709 236.144 33.9985C233.244 36.9638 229.738 37.5726 225.914 36.5269C223.351 35.8251 221.551 34.0264 220.235 31.7443C218.551 28.8256 218.095 25.6093 218.284 22.3141C218.376 20.6734 218.592 18.9817 219.089 17.4293C221.537 9.79772 230.437 7.49709 236.295 12.9117C236.631 13.2185 237.004 13.488 237.75 14.0922ZM237.648 22.8904C237.589 20.9476 237.128 19.1304 236.079 17.4944C233.493 13.4787 228.09 13.5066 225.776 17.6849C223.751 21.3381 223.769 25.2096 225.615 28.9464C226.687 31.1169 228.546 32.2509 231.045 32.2324C233.534 32.2184 235.283 31.0518 236.466 28.9139C237.497 27.0315 237.644 24.9679 237.648 22.8904Z" fill="#02BF39"/>
<path d="M317.591 32.5577C316.887 33.2595 316.473 33.6592 316.073 34.0775C312.069 38.2419 304.448 38.0746 300.813 32.725C299.373 30.6057 298.581 28.2632 298.31 25.7767C298.006 22.9973 298.098 20.204 298.954 17.4944C301.324 10.0022 310.215 7.50176 316.073 12.67C316.501 13.0465 316.938 13.4044 317.679 14.0365C317.785 13.0651 317.9 12.4609 317.909 11.852C317.946 9.30043 317.941 6.74882 317.973 4.19722C317.982 3.60695 317.987 2.9981 318.125 2.43572C318.502 0.925206 319.616 0.083965 321.056 0.121147C322.538 0.162977 323.795 1.17154 324.052 2.64022C324.186 3.39316 324.19 4.17862 324.186 4.9455C324.186 14.2038 324.172 23.4667 324.158 32.725C324.158 33.1387 324.154 33.557 324.117 33.9706C323.942 35.8948 323.003 36.8662 321.273 36.9359C319.289 37.0149 318.337 36.248 317.973 34.2867C317.886 33.8451 317.775 33.4083 317.591 32.5577ZM317.633 23.6434C317.669 21.101 317.191 18.8655 315.691 16.9692C312.92 13.4648 307.973 13.7158 305.783 17.6106C303.735 21.2544 303.717 25.126 305.557 28.8767C306.657 31.1169 308.572 32.2742 311.135 32.2231C313.703 32.1766 315.447 30.8845 316.588 28.6536C317.416 27.0362 317.683 25.2887 317.633 23.6434Z" fill="#02BF39"/>
<path d="M374.599 33.3012C373.416 34.0495 372.441 34.7095 371.424 35.2998C368.368 37.0752 365.087 37.4703 361.732 36.55C358.506 35.6623 356.491 32.9201 356.449 29.7783C356.412 26.6224 358.184 24.0383 361.405 22.974C363.403 22.314 365.51 21.9933 367.567 21.5053C369.449 21.0544 371.341 20.6222 373.205 20.1017C374.378 19.7763 374.493 19.5021 374.304 18.3076C373.863 15.4632 372.583 14.292 369.707 14.1386C366.601 13.9759 364.088 14.938 362.432 17.8103C361.484 19.4556 360.715 19.7159 359.44 19.293C358.336 18.9258 357.811 18.2426 357.761 17.062C357.678 15.1007 358.654 13.6692 360.085 12.5026C361.737 11.1594 363.693 10.4437 365.745 10.2159C368.548 9.90452 371.378 9.81621 374.166 10.4437C377.977 11.2988 379.896 13.3392 380.19 17.2805C380.42 20.3433 380.273 23.4387 380.402 26.5109C380.471 28.2166 380.729 29.9223 380.963 31.6141C381.06 32.3113 381.377 32.9759 381.515 33.6731C381.782 35.007 381.387 35.9086 380.319 36.5593C379.293 37.1868 378.009 37.0938 377.056 36.234C376.536 35.7645 376.108 35.1882 375.653 34.6444C375.326 34.2447 375.013 33.8264 374.599 33.3012ZM374.212 23.7222C373.83 23.7222 373.531 23.6665 373.255 23.7315C370.973 24.2567 368.681 24.768 366.417 25.3629C365.639 25.5674 364.843 25.8927 364.185 26.3529C362.335 27.6356 362.128 29.8898 363.614 31.6048C364.723 32.8783 366.168 33.2455 367.761 33.0828C372.611 32.5948 375.128 28.9974 374.212 23.7222Z" fill="#02BF39"/>
<path d="M93.3946 24.8702C91.2179 24.8702 89.0413 24.8423 86.8692 24.8795C85.277 24.9074 85.0193 25.2699 85.2954 26.8408C86.2664 32.367 91.5585 34.7606 96.487 31.8232C97.5777 31.1725 98.5119 30.2198 99.4276 29.3088C100.201 28.5419 101.024 28.119 102.106 28.2863C103.058 28.435 103.666 28.9788 103.592 29.9455C103.528 30.7961 103.293 31.7117 102.861 32.4321C101.89 34.0541 100.38 35.1324 98.6545 35.8156C94.6785 37.3959 90.5921 37.4935 86.5885 36.0945C82.2398 34.5793 79.879 31.1958 79.1473 26.7247C78.7147 24.0894 78.7516 21.3937 79.474 18.7724C80.9098 13.5715 85.0975 10.267 90.4402 10.0532C93.1139 9.94631 95.7139 10.1043 98.1299 11.4801C101.724 13.5204 103.496 16.7041 103.836 20.7384C104.052 23.3364 102.893 24.6518 100.279 24.7726C97.9919 24.8795 95.6955 24.7958 93.4038 24.7958C93.3946 24.8191 93.3946 24.847 93.3946 24.8702ZM97.4949 21.3286C98.3002 17.3595 94.6923 13.3996 90.4863 14.2455C87.6975 14.8032 86.1743 16.6809 85.4887 19.3673C85.0055 21.2636 85.1343 21.4634 87.0303 21.4774C90.0215 21.4959 93.0127 21.4913 96.0039 21.4774C96.5147 21.4681 97.0255 21.3751 97.4949 21.3286Z" fill="#02BF39"/>
<path d="M16.9438 13.8691C17.5098 13.3672 17.9286 12.9953 18.3474 12.6189C21.4168 9.86742 24.9602 9.37476 28.7153 10.6715C31.7065 11.7033 33.4966 14.0179 33.6485 17.1969C33.897 22.407 33.8878 27.6357 33.9614 32.8551C33.9706 33.3803 33.8371 33.9148 33.7267 34.4354C33.3447 36.2062 32.4198 36.8894 30.6435 36.9591C28.9868 37.0242 28.0204 35.9645 27.6615 34.4911C27.5234 33.9241 27.5418 33.3153 27.5418 32.7204C27.5326 29.1602 27.5648 25.5954 27.5188 22.0352C27.505 20.8547 27.3854 19.6649 27.1691 18.5076C26.6077 15.4912 24.6289 14.0504 21.0946 15.0775C18.9134 15.7096 17.519 17.3085 17.0312 19.5858C16.8333 20.5061 16.7275 21.4635 16.7137 22.4024C16.6723 25.7859 16.7091 29.1695 16.6769 32.553C16.6723 33.2548 16.5987 33.9799 16.4146 34.6538C15.9498 36.3642 14.8868 37.0706 13.1427 36.9266C11.6425 36.8057 10.7313 35.8111 10.5564 34.0682C10.5012 33.5384 10.5012 32.9992 10.4966 32.4694C10.492 26.4134 10.492 20.3574 10.4966 14.3014C10.4966 13.8273 10.5012 13.3486 10.538 12.8792C10.6807 11.1595 11.4722 10.2392 12.931 10.0766C14.7119 9.87672 15.8301 10.5274 16.3962 12.1076C16.5756 12.6003 16.7137 13.1115 16.9438 13.8691Z" fill="#02BF39"/>
<path d="M197.193 13.6738C197.874 13.0696 198.358 12.656 198.827 12.2191C201.689 9.5513 207.032 9.47694 209.775 11.0386C211.984 12.2935 213.277 14.1758 213.626 16.6763C213.838 18.1961 213.926 19.7484 213.944 21.2868C213.985 25.0283 213.976 28.7697 213.944 32.5111C213.935 33.3291 213.843 34.1797 213.599 34.9559C213.12 36.4757 211.951 37.1031 210.276 36.9079C208.91 36.7499 208.012 35.8203 207.847 34.3005C207.759 33.4779 207.778 32.6413 207.764 31.8093C207.686 27.6589 207.635 23.5038 207.515 19.3534C207.492 18.6005 207.276 17.8289 207.018 17.1085C206.59 15.9001 205.661 15.1751 204.455 14.8776C201.082 14.0503 197.672 16.2766 197.06 19.7345C196.885 20.7198 196.816 21.7377 196.807 22.7416C196.775 25.9485 196.798 29.1555 196.788 32.3624C196.788 33.0131 196.784 33.6731 196.706 34.3191C196.521 35.811 195.601 36.7545 194.248 36.9172C192.578 37.1171 191.427 36.4989 190.893 34.993C190.682 34.3935 190.599 33.7242 190.594 33.0828C190.571 26.5527 190.571 20.018 190.585 13.4879C190.59 11.3639 191.358 10.281 192.914 10.0672C194.934 9.78833 196.094 10.5552 196.733 12.5816C196.825 12.8558 196.954 13.1115 197.193 13.6738Z" fill="#02BF39"/>
<path d="M345.966 32.5297C345.244 33.2176 344.752 33.6917 344.255 34.1611C341.153 37.0845 337.517 37.6236 333.615 36.3548C331.006 35.5043 329.455 33.515 328.972 30.7915C328.733 29.4529 328.618 28.0818 328.599 26.72C328.553 22.6858 328.576 18.6469 328.59 14.6127C328.59 14.0224 328.627 13.4229 328.742 12.8465C329.151 10.7876 330.109 9.98354 331.963 10.0765C333.767 10.1694 334.904 11.3267 334.977 13.3485C335.042 15.1239 334.922 16.9087 334.927 18.6841C334.936 21.5843 334.968 24.4845 335.019 27.3847C335.028 27.8494 335.148 28.3235 335.272 28.779C336.123 31.9069 338.562 32.7435 341.153 32.0092C343.514 31.3445 345.152 29.7736 345.538 27.1941C345.713 26.0275 345.828 24.8377 345.842 23.6572C345.884 20.4502 345.842 17.248 345.874 14.041C345.884 13.3439 345.962 12.6095 346.192 11.9542C346.712 10.4762 347.922 9.86269 349.583 10.0904C350.973 10.281 351.825 11.1873 351.995 12.7211C352.059 13.3067 352.064 13.9062 352.064 14.5011C352.068 20.5571 352.068 26.6131 352.064 32.6645C352.064 33.199 352.064 33.7335 352.013 34.2633C351.852 35.8761 351.051 36.7731 349.68 36.9172C347.987 37.0938 346.97 36.4571 346.468 34.8396C346.275 34.2308 346.187 33.5848 345.966 32.5297Z" fill="#02BF39"/>
<path d="M119.151 36.9265C116.362 37.1357 113.642 36.5686 111.171 34.9977C109.611 34.0077 108.543 32.6506 108.162 30.7915C107.89 29.4808 108.401 28.3514 109.51 27.8309C110.67 27.2825 111.756 27.5846 112.607 28.714C112.855 29.0439 113.058 29.4111 113.27 29.7643C115.138 32.8969 118.589 33.7382 121.719 32.8597C122.165 32.7343 122.597 32.5158 122.989 32.2602C125.096 30.8845 125.096 28.2864 122.883 27.0733C121.613 26.3761 120.163 25.995 118.769 25.5488C117.149 25.0329 115.483 24.6565 113.877 24.1034C112.943 23.7827 112.036 23.3179 111.194 22.7881C106.914 20.0831 107.862 14.7986 110.67 12.4655C112.17 11.2199 113.895 10.4669 115.782 10.2299C118.654 9.86737 121.553 9.84413 124.3 10.9317C125.432 11.3779 126.504 12.0425 127.485 12.7722C128.074 13.2091 128.525 13.9063 128.87 14.5755C129.542 15.8908 129.316 17.0017 128.368 17.7918C127.379 18.6098 125.851 18.6051 124.802 17.6942C124.227 17.1969 123.743 16.588 123.237 16.007C121.41 13.9016 118.741 13.1998 116.224 14.2316C115.096 14.6917 114.121 15.3656 114.107 16.7879C114.093 18.1125 114.917 18.8933 116.008 19.3023C117.545 19.8786 119.146 20.269 120.702 20.7896C122.703 21.4588 124.751 22.0259 126.661 22.9043C128.916 23.9407 130.439 25.6325 130.462 28.3933C130.49 31.3725 129.463 33.7382 126.891 35.2719C124.539 36.6616 121.944 37.0659 119.151 36.9265Z" fill="#02BF39"/>
<path d="M271.55 29.1787C271.817 28.5606 272.121 27.9564 272.351 27.3289C274.04 22.7137 275.71 18.0892 277.399 13.4694C277.62 12.8605 277.845 12.2377 278.149 11.666C278.94 10.1741 280.091 9.6954 281.513 10.202C282.801 10.6621 283.404 11.7497 283.17 13.3532C283.078 13.9899 282.861 14.6174 282.622 15.2216C280.22 21.2776 277.799 27.3243 275.379 33.3756C275.181 33.8683 274.96 34.3563 274.716 34.8304C273.966 36.2665 272.852 37.0055 271.168 36.9683C269.525 36.9312 268.508 36.0946 267.887 34.7095C266.967 32.6599 266.124 30.5684 265.282 28.4816C263.616 24.3637 261.964 20.2411 260.326 16.1139C259.999 15.2913 259.659 14.4547 259.466 13.5949C259.102 11.9867 259.852 10.6621 261.274 10.1927C262.82 9.68146 264.077 10.1695 264.735 11.7451C265.554 13.711 266.235 15.7328 266.953 17.7406C268.108 20.9755 269.235 24.2242 270.39 27.4591C270.597 28.0447 270.878 28.5978 271.127 29.1694C271.26 29.1741 271.403 29.1787 271.55 29.1787Z" fill="#02BF39"/>
<path d="M392.178 18.6189C392.178 23.3596 392.187 28.105 392.164 32.8457C392.16 33.5428 392.086 34.2725 391.874 34.9325C391.419 36.3454 390.452 36.9496 388.915 36.9357C387.415 36.9264 386.472 36.2757 386.044 34.8256C385.846 34.1563 385.754 33.4313 385.754 32.7341C385.735 23.2481 385.74 13.7667 385.749 4.28065C385.749 3.69503 385.786 3.09083 385.92 2.5238C386.329 0.753014 387.323 -0.0278059 389.017 0.00472828C390.65 0.0326147 391.759 0.952867 392.086 2.62605C392.196 3.20237 392.173 3.80658 392.173 4.39684C392.178 9.13754 392.178 13.8782 392.178 18.6189Z" fill="#02BF39"/>
<path d="M74.3839 18.54C74.3839 23.053 74.3839 27.5613 74.3793 32.0742C74.3793 32.7249 74.3839 33.3849 74.3195 34.0309C74.1262 36.0109 73.0954 36.9683 71.2455 36.9358C69.5198 36.9032 68.5718 35.9458 68.3786 34.003C68.3325 33.5336 68.3233 33.0549 68.3233 32.5808C68.3187 23.2017 68.3187 13.8225 68.3279 4.4434C68.3279 3.7323 68.3463 3.0119 68.4706 2.31474C68.7467 0.799572 69.8051 -0.013782 71.3513 0.00945667C72.9022 0.0280476 73.9698 0.855345 74.2321 2.34727C74.3655 3.1002 74.3747 3.88102 74.3747 4.65255C74.3885 9.27705 74.3839 13.9108 74.3839 18.54Z" fill="#02BF39"/>
<path d="M293.883 23.4945C293.883 26.404 293.887 29.3089 293.878 32.2184C293.878 32.869 293.874 33.529 293.795 34.1704C293.575 36.0109 292.558 36.9219 290.758 36.9358C289.042 36.9498 287.9 35.9505 287.652 34.2029C287.601 33.8544 287.611 33.4918 287.611 33.1386C287.611 26.669 287.611 20.2039 287.611 13.7343C287.611 13.4368 287.606 13.1394 287.643 12.8466C287.859 11.1223 289.028 10.0765 290.731 10.0765C292.488 10.0765 293.611 11.0479 293.8 12.8233C293.897 13.7064 293.874 14.5988 293.878 15.4911C293.887 18.1543 293.883 20.8267 293.883 23.4945Z" fill="#02BF39"/>
<path d="M186.108 23.4898C186.108 26.6921 186.122 29.8944 186.094 33.1013C186.089 33.7427 186.034 34.4166 185.827 35.0162C185.33 36.4523 184.258 37.0519 182.643 36.9357C181.336 36.8427 180.383 36.0294 180.07 34.6583C179.955 34.1424 179.941 33.5986 179.941 33.0641C179.932 26.6595 179.937 20.2503 179.941 13.8457C179.941 13.6087 179.951 13.3716 179.969 13.1346C180.13 11.2011 181.211 10.0903 182.946 10.0764C184.773 10.0671 186.02 11.2337 186.08 13.1718C186.149 15.3655 186.103 17.5593 186.108 19.7576C186.108 20.9986 186.108 22.2442 186.108 23.4898Z" fill="#02BF39"/>
<path d="M6.13442 23.5781C6.13442 26.785 6.16664 29.992 6.11141 33.1943C6.09761 33.9937 5.91814 34.8535 5.5822 35.5739C5.04379 36.7266 3.97616 37.0054 2.76127 36.945C1.61542 36.8892 0.865317 36.2897 0.460355 35.3044C0.19805 34.6676 0.0553933 33.9333 0.0507914 33.2408C0.0231804 26.7107 0.0185786 20.1806 0.0415878 13.6505C0.0507914 11.4289 1.11842 10.1554 2.89473 10.0764C4.78148 9.99276 6.0884 11.2151 6.11602 13.2508C6.16664 16.6948 6.12982 20.1388 6.12982 23.5781C6.12982 23.5781 6.12982 23.5781 6.13442 23.5781Z" fill="#02BF39"/>
<path d="M254.666 23.4945C254.666 26.5202 254.675 29.5459 254.661 32.5716C254.657 33.2827 254.657 34.0077 254.528 34.7002C254.252 36.1503 253.138 36.959 251.587 36.9404C250.129 36.9218 249.102 36.1317 248.817 34.7235C248.688 34.0914 248.661 33.4267 248.661 32.7761C248.651 26.6085 248.656 20.4363 248.656 14.2688C248.656 14.0317 248.656 13.7947 248.67 13.5577C248.785 11.1315 249.756 10.03 251.735 10.0765C253.608 10.1183 254.588 11.257 254.657 13.5298C254.698 14.952 254.671 16.3788 254.675 17.801C254.666 19.6973 254.666 21.5936 254.666 23.4945Z" fill="#02BF39"/>
<path d="M290.671 6.33971C288.779 6.31647 287.56 5.09411 287.564 3.23037C287.569 1.35268 288.936 0.0513133 290.859 0.093143C292.626 0.130325 294.058 1.53859 294.053 3.23037C294.044 5.01045 292.576 6.36295 290.671 6.33971Z" fill="#02BF39"/>
<path d="M186.154 3.11887C186.186 5.0105 185.003 6.2561 183.144 6.29328C181.156 6.33511 179.909 5.1267 179.914 3.16535C179.918 1.29231 181.138 0.0699556 183.006 0.0606602C184.851 0.0513647 186.121 1.28302 186.154 3.11887Z" fill="#02BF39"/>
<path d="M86.3765 5.86092C87.2968 4.22492 88.0745 2.64004 89.0593 1.19459C89.4367 0.641512 90.2512 0.158147 90.9139 0.0884312C92.4647 -0.0742397 94.0385 0.0373061 95.8562 0.0373061C95.5203 0.525319 95.35 0.878547 95.0877 1.13417C93.744 2.44484 92.4003 3.76015 91.0059 5.01968C89.9659 5.95853 88.7142 6.42795 87.2922 6.26528C87.0345 6.2281 86.7998 6.05148 86.3765 5.86092Z" fill="#02BF39"/>
<path d="M251.643 6.27473C249.912 6.26543 248.495 4.8804 248.481 3.17933C248.467 1.38995 249.944 -0.0462002 251.758 0.00492496C253.635 0.0606978 254.859 1.42713 254.809 3.20257C254.749 5.18251 253.249 6.39092 251.643 6.27473Z" fill="#02BF39"/>
<path d="M6.18032 3.27678C6.17112 5.15447 4.94703 6.36288 3.06948 6.35358C1.21954 6.33964 -0.00915232 5.0801 5.13533e-05 3.21171C0.00925503 1.42233 1.35759 0.0791339 3.1247 0.0977248C4.91021 0.116316 6.18952 1.45022 6.18032 3.27678Z" fill="#02BF39"/>
</svg>
