<svg width="344" height="255" viewBox="0 0 344 255" fill="none" xmlns="http://www.w3.org/2000/svg">
<g clip-path="url(#clip0)">
<path d="M14.0072 156.744C13.2245 157.088 12.5756 157.031 11.9577 156.312C10.4591 154.564 8.93993 152.832 7.33837 151.178C6.21058 150.011 6.25178 149.399 7.94603 149.081C8.66184 148.947 9.32615 148.562 10.1347 148.248C8.83693 146.295 5.09825 150.72 5.16005 145.797C4.2537 146.614 3.23921 147.2 2.61094 145.832C1.91573 144.327 -0.525225 143.658 0.0978894 141.69C0.746752 139.634 3.06412 140.009 4.70687 139.526C8.73909 138.334 12.8074 137.25 16.8756 136.175C27.7312 133.308 38.6022 130.486 49.4578 127.608C54.489 126.272 59.4842 124.807 64.5104 123.46C91.0004 116.363 117.49 109.281 143.981 102.193C157.04 98.6984 170.095 95.1933 183.149 91.7036C210.334 84.4312 237.52 77.164 264.71 69.8917C270.39 68.3704 276.086 66.8953 281.745 65.297C282.863 64.9835 284.078 65.482 285.149 64.598C285.86 64.007 286.071 64.9115 286.282 65.4512C286.581 66.2067 286.581 67.1472 287.472 67.6097C287.585 67.3887 287.765 67.1934 287.719 67.0958C286.349 63.8836 288.594 63.4622 290.86 62.8763C297.071 61.2779 303.256 59.5819 309.456 57.9424C314.868 56.5136 320.296 55.1568 325.693 53.6766C327.691 53.1267 328.479 54.2574 328.221 55.7324C327.856 57.855 327.907 60.1318 326.687 62.0642C323.551 62.2647 320.796 64.0532 317.536 64.1149C316.609 64.1303 313.555 64.5826 314.312 67.4401C314.364 67.6457 313.684 67.7793 314.075 68.2008C314.817 68.2419 315.224 67.7896 315.775 67.3373C318.18 65.3432 321.46 65.3535 324.143 63.8939C325.281 63.272 325.214 65.6619 326.517 65.1171C325.08 71.6288 323.659 78.1405 322.186 84.6419C321.97 85.5927 322.232 86.2146 322.845 86.9393C329.329 94.5714 335.776 102.229 342.223 109.892C344.536 112.642 345.128 113.706 340.648 114.913C318.344 120.947 296.01 126.878 273.686 132.845C266.461 134.777 259.236 136.695 252.016 138.627C236.943 142.661 221.911 146.886 206.776 150.669C198.047 152.848 189.349 155.176 180.688 157.54C165.352 161.724 150.011 165.892 134.649 169.957C125.426 172.398 116.146 174.721 106.964 177.271C90.9026 181.732 74.7531 185.854 58.6963 190.309C48.1292 193.244 37.5105 196.004 26.9175 198.846C24.0749 199.607 21.2426 200.409 18.3845 201.118C16.0517 201.699 15.1917 201.128 15.4955 198.764C16.0723 194.21 16.8962 189.693 17.6944 185.17C18.7501 179.219 19.847 173.277 21.0005 167.341C21.2065 166.267 20.5783 165.763 20.0221 165.147C18.3536 163.307 16.649 161.503 15.0166 159.637C14.5583 159.113 13.6622 158.707 14.1154 157.72C16.8859 156.78 19.8058 156.209 22.2262 154.277C20.8666 154.652 19.502 155.027 18.1424 155.407C17.7253 152.653 15.6757 153.439 13.966 153.495C14.6355 152.807 15.3616 152.062 14.7282 151.059C14.2905 150.366 13.6056 150.859 13.1575 151.172C12.4932 151.64 11.5096 152.077 11.8289 153.105C12.2357 154.405 13.2193 153.547 13.9815 153.485C13.9403 154.379 14.033 155.058 15.2432 154.559C16.8035 153.922 16.3812 155.176 16.4791 155.916C15.6603 156.199 14.8312 156.471 14.0072 156.744ZM250.492 81.2499C250.682 81.3064 250.878 81.3681 251.069 81.4246C250.95 81.2807 250.832 81.1368 250.713 80.9929C250.61 80.6794 250.543 80.3145 250.121 80.3145C250.018 80.3145 249.92 80.5047 249.817 80.6075C250.039 80.8285 250.265 81.0392 250.492 81.2499ZM97.8186 162.731C98.174 162.726 98.5293 162.716 98.8846 162.711C99.2605 162.86 99.5747 163.322 100.038 163.06C103.499 161.092 107.423 160.542 111.151 159.37C111.589 159.231 112.444 159.406 112.248 158.429C111.507 158.162 110.894 158.578 110.255 158.748C106.491 159.755 102.737 160.793 98.9773 161.821C98.5911 161.785 98.2048 161.749 97.8135 161.713C97.865 161.215 98.4108 160.182 97.4684 160.49C96.7526 160.727 95.1459 160.624 95.3159 162.233C95.285 162.392 95.2489 162.551 95.2077 162.711C94.8781 162.901 94.5434 163.091 94.2138 163.281C91.7368 163.63 89.646 164.499 88.9457 167.218C88.5955 167.387 88.2402 167.557 87.89 167.727C87.9878 167.927 88.0445 168.251 88.1938 168.302C88.8221 168.518 88.992 167.917 89.3062 167.583C90.6811 164.941 93.6525 165.059 95.8411 163.826C96.7011 163.81 97.5251 163.749 97.8186 162.731ZM12.9618 148.865C13.0391 148.973 13.1163 149.086 13.1936 149.194C13.1112 149.091 13.0288 148.983 12.9464 148.88C12.9464 148.423 12.9464 147.965 12.9464 147.508C13.4408 147.4 14.2802 147.529 13.9351 146.66C13.7497 146.187 13.2708 146.686 12.9412 146.819C12.3799 146.979 11.3963 146.506 11.3706 147.451C11.3448 148.279 11.9165 148.968 12.9618 148.865ZM13.5386 144.846C14.0175 144.82 14.4965 144.789 14.9754 144.763C14.9754 145.632 14.9805 146.501 14.9805 147.369C14.8415 147.75 14.548 148.125 14.8621 148.536C14.9393 148.634 15.202 148.711 15.2895 148.654C15.8508 148.294 15.4903 147.765 15.4955 147.302C16.5512 145.627 18.266 146.583 19.6565 146.264C20.7585 149.348 17.9828 147.976 16.6593 148.515C17.7408 149.507 18.9612 149.379 19.9294 149.559C20.6967 149.703 21.8399 149.06 22.4527 148.423C23.0038 147.847 22.0562 147.272 21.6957 146.737C22.3394 146.29 23.39 146.686 23.7865 145.735C23.7917 145.442 23.7968 145.149 23.8071 144.851C27.0205 143.16 30.7541 142.918 34.3743 141.222C32.2372 140.318 31.0579 142.055 29.5181 142.117C26.1039 142.255 23.0604 143.777 19.8521 144.702C18.3278 145.144 16.6181 146.701 15.0063 144.738C14.7179 143.797 16.9014 144.388 16.0053 143.294C15.305 142.446 14.3317 142.61 13.7497 143.689C13.5901 143.982 13.482 144.306 13.3481 144.614C12.8794 144.769 12.4108 144.923 11.9422 145.072C12.04 145.262 12.0967 145.57 12.2409 145.622C12.9618 145.894 13.3275 145.478 13.5386 144.846ZM230.073 137.126C231.701 137.234 233.127 136.736 234.821 135.564C232.741 135.584 231.227 135.852 230.011 137.059C229.795 137.121 229.579 137.188 229.363 137.25C229.44 137.337 229.574 137.507 229.589 137.496C229.759 137.393 229.914 137.255 230.073 137.126ZM132.296 126.277C132.507 127.387 133.218 127.587 134.181 127.3C135.968 126.765 137.755 126.231 139.541 125.691C145.541 124.56 151.144 122.109 156.994 120.474C157.504 120.479 158.034 120.587 158.518 120.474C160.151 120.089 161.181 119.133 160.676 117.35C160.269 115.905 159.09 115.227 157.674 115.761C156.129 116.342 155.336 117.483 156.33 119.184C155.784 120.541 154.434 120.459 153.358 120.69C148.636 121.708 144.068 123.209 139.516 124.786C137.085 125.233 134.824 126.477 132.26 126.297C132.62 125.383 134.031 125.732 134.371 124.432C131.801 125.105 129.278 125.311 127.131 126.791C123.366 126.565 120.328 128.574 117.063 129.9C120.503 129.335 123.881 128.579 127.11 127.289C128.923 127.325 130.452 126.01 132.296 126.277ZM196.029 134.073C196.044 133.883 196.065 133.698 196.08 133.508C198.789 132.886 200.916 131.447 202.383 128.641C203.254 130.327 204.258 131.55 206.055 130.681C208.027 129.725 207.512 128.086 207.075 126.462C205.38 120.197 203.722 113.922 202.054 107.651C201.611 105.981 200.941 104.367 198.815 104.861C196.61 105.369 196.909 107.153 197.264 108.808C197.682 110.776 198.562 112.647 198.619 114.785C191.548 111.85 187.305 115.787 186.517 119.58C185.673 123.645 186.79 127.582 189.7 130.753C190.585 131.72 191.075 133.41 192.944 133.071C192.455 133.811 191.559 134.474 192.45 135.492C190.925 136.468 189.154 136.607 187.439 136.926C187.223 136.155 186.738 135.651 185.961 135.44C186.146 134.988 186.61 134.418 186.476 134.104C184.818 130.167 184.375 125.866 182.789 121.919C181.785 119.41 179.513 117.977 176.954 118.177C174.75 118.352 172.793 119.153 171.398 120.957C170.785 121.749 170.414 122.551 169.384 121.292C168.596 120.325 167.432 120.32 166.361 120.999C165.218 121.718 165.228 122.782 165.542 123.933C166.758 128.456 167.973 132.974 169.157 137.507C169.693 139.547 170.857 140.369 172.927 139.629C173.174 140.385 172.783 140.719 172.108 140.873C167.515 141.937 163.235 144.09 158.544 144.815C155.882 145.154 153.219 145.498 150.804 146.799C150.14 146.367 149.367 147.935 148.837 146.783C148.378 145.786 149.362 145.498 150.011 145.139C152.138 143.957 153.945 142.425 155.387 140.451C158.508 136.181 157.421 131.288 152.771 128.749C145.695 124.889 133.65 128.014 129.33 134.829C126.441 139.382 127.754 144.023 132.595 146.398C135.458 147.801 138.527 148.161 141.617 147.729C143.424 147.477 143.903 148.14 144.398 149.697C144.969 151.506 143.816 152.889 143.507 154.662C145.701 153.799 147.204 152.478 147.946 150.617C148.569 149.045 149.532 148.084 151.03 147.508C153.425 146.408 156.144 146.681 158.57 145.704C166.789 144.82 174.395 141.51 182.372 139.67C185.564 138.935 188.922 138.894 191.929 137.388C192.501 137.404 192.774 136.972 193.098 136.612C193.917 136.402 194.731 136.196 195.55 135.985C197.96 135.302 200.37 134.618 202.78 133.929C210.185 132.326 217.482 130.363 224.682 127.742C222.766 126.092 221.381 127.7 219.856 128.024C214.042 129.258 208.352 130.938 202.78 133.01C200.504 133.225 198.47 134.942 196.029 134.073ZM311.33 75.9511L311.346 75.9665C310.445 74.1626 309.198 74.7844 308.23 75.725C307.082 76.8454 307.195 78.2125 308.4 79.2918C309.533 80.3094 310.743 80.1552 311.789 79.0862C312.824 78.0223 312.649 76.9687 311.33 75.9511ZM221.839 134.592C219.702 135.245 217.57 135.898 215.433 136.545C215.51 136.782 215.582 137.018 215.659 137.255C217.719 136.648 219.774 136.047 221.834 135.44C226.144 134.968 230.006 132.989 234.121 131.848C236.83 131.216 239.657 130.949 242.345 129.191C240.208 128.805 238.514 130.137 236.557 129.761C237.082 128.276 237.412 126.827 239.435 126.976C241.634 127.14 243.504 126.035 245.45 125.259C247.32 125.095 248.983 124.257 250.713 123.64C251.13 123.491 251.501 123.178 251.311 122.7C251.105 122.17 250.677 122.253 250.312 122.582C248.926 123.825 246.928 123.548 245.44 124.535C239.986 125.228 234.821 126.878 229.8 129.047C231.016 129.032 232.185 128.847 233.343 128.615C234.265 128.435 235.192 128.554 235.537 129.432C236.016 130.635 234.62 130.563 234.1 131.098C229.821 131.576 225.912 133.369 221.839 134.592ZM285.551 75.8175C290.716 75.211 295.567 73.4482 300.465 71.8395C301.175 71.9166 301.531 72.1479 301.232 72.9856C300.969 73.736 301.525 73.8645 302.076 73.6332C302.55 73.4328 303.539 73.3402 303.096 72.5745C302.591 71.7008 302.169 70.1281 300.516 71.2228C295.474 72.2147 290.448 73.2786 285.608 75.0414C283.713 75.1442 282.039 75.946 280.35 76.686C279.953 76.8608 279.67 77.2257 280.005 77.6934C280.288 78.0891 280.654 77.8476 280.88 77.6677C282.25 76.5781 284.078 76.6398 285.551 75.8175ZM126.672 154.153C121.919 155.351 117.017 156.065 112.665 158.537C117.547 158.234 121.945 156.111 126.605 154.991C128.444 154.744 130.231 154.354 131.776 153.187C129.979 153.033 128.31 153.501 126.672 154.153ZM59.7829 135.497C60.0919 136.993 57.8415 136.638 57.8209 138.164C59.8447 137.584 61.6986 137.059 63.5371 136.509C63.9696 136.381 64.7009 136.278 64.1962 135.569C63.8872 135.132 63.5525 134.089 62.7234 135.132C61.8531 136.222 60.8077 135.98 59.7366 135.533C59.819 133.338 62.5689 134.921 63.0427 133.261C62.5535 132.871 62.0385 133.056 61.5441 133.076C56.7858 133.297 52.5527 136.427 47.5987 135.59C47.4391 135.564 47.2074 135.836 47.0323 135.996C44.4059 138.344 41.1101 138.699 38.5353 136.72C38.8288 138.159 39.0502 139.408 39.3489 140.636C39.421 140.929 39.6991 141.279 39.972 141.387C40.2965 141.52 40.729 141.264 40.6878 140.893C40.5024 139.316 41.8465 139.465 42.6808 139.11C46.3525 137.553 50.1169 136.756 53.938 138.149C54.1131 136.746 52.5733 137.368 52.1511 136.34C54.8341 135.857 57.1308 134.284 59.7829 135.497ZM273.387 97.0281C271.508 96.5398 269.422 94.8952 268.186 97.9635C268.104 97.6294 268.052 97.2902 267.944 96.9715C267.419 95.3783 266.605 94.0934 264.628 94.6434C262.573 95.2138 262.748 96.7865 263.17 98.3643C264.077 101.741 264.906 105.143 265.972 108.474C267.228 112.411 270.375 113.798 274.289 112.457C276.405 111.732 277.672 110.077 279.011 108.217C279.814 109.938 280.865 111.028 282.528 110.262C284.145 109.517 283.97 108.093 283.512 106.557C282.461 103.041 281.349 99.5207 280.71 95.9231C280.412 94.2528 280.036 92.937 278.707 91.9092C277.095 90.6603 275.427 91.2205 275.231 93.2557C275.123 94.3658 274.896 95.3989 274.567 96.4422C274.175 96.6375 273.779 96.8328 273.387 97.0281ZM238.781 103.653C237.782 102.661 236.758 101.751 235.202 102.563C233.951 103.216 233.395 104.573 233.776 105.58C235.491 110.139 236.273 114.949 237.803 119.544C238.251 120.896 239.142 121.8 240.682 121.441C242.293 121.06 242.891 119.93 242.51 118.331C241.882 115.684 241.222 113.043 240.573 110.396C242.494 109.877 242.633 111.742 243.529 112.596C244.534 113.762 245.471 114.985 246.552 116.075C248.288 117.817 250.42 118.46 252.881 118.167C255.693 117.833 257.434 116.08 258.973 113.402C259.715 115.494 260.982 116.414 262.764 115.468C264.52 114.533 264.03 112.899 263.613 111.377C263.206 109.897 262.836 108.407 262.434 106.922C261.09 101.921 259.761 96.915 258.386 91.9246C257.959 90.3827 257.32 89.1647 255.235 89.7095C253.005 90.2954 253.391 91.8526 253.679 93.3328C254.086 95.4091 254.658 97.4495 255.25 99.8651C250.353 97.4289 246.733 98.8012 243.627 102.296C241.918 102.414 240.352 103.036 238.781 103.653ZM90.8974 160.434C90.1559 160.624 89.4092 160.799 88.6779 161.014C88.0754 161.194 87.7355 161.092 87.6222 160.393C86.6644 154.446 84.3676 148.844 83.0647 142.985C82.6991 141.335 82.2047 139.701 81.5919 138.128C81.0924 136.854 80.0007 136.309 78.6617 136.844C77.4567 137.322 76.7306 138.087 77.1529 139.609C79.1664 146.927 81.1233 154.266 83.0853 161.6C83.5488 163.338 85.4284 163.574 86.1649 163.07C87.7716 161.986 89.7181 161.883 91.2528 160.809C91.9995 160.768 92.6792 160.583 93.2972 159.776C92.3393 159.838 91.5617 159.863 90.8974 160.434ZM118.464 133.308C118.345 132.845 118.036 132.341 118.732 132.054C119.071 131.91 119.71 131.951 119.437 131.344C119.216 130.851 118.582 130.738 118.129 130.846C117.125 131.082 116.394 131.694 117.068 132.783C117.439 133.385 117.928 133.811 117.274 134.474C115.168 134.382 113.19 134.885 111.362 135.877C108.504 137.429 107.315 140.338 108.376 142.97C109.112 144.794 111.877 146.141 114.313 146.018C116.1 145.925 117.908 145.935 119.689 146.064C120.745 146.141 121.698 146.67 121.878 147.888C122.058 149.101 121.276 149.826 120.338 150.314C118.041 151.517 115.889 151.28 113.968 149.476C112.974 148.541 111.805 148.156 110.806 149.235C109.694 150.432 110.415 151.604 111.337 152.617C112.052 153.403 112.964 153.876 113.994 154.076C117.83 154.811 121.322 153.943 124.36 151.542C126.312 150.006 126.786 147.868 126.111 145.529C125.483 143.355 123.758 142.415 121.682 142.204C119.561 141.988 117.403 142.112 115.281 141.885C114.102 141.762 112.433 141.7 112.418 140.035C112.403 138.524 113.875 138.098 115.127 137.712C116.95 137.147 118.201 138.391 119.602 139.141C120.637 139.691 121.6 139.624 122.414 138.786C123.299 137.877 122.841 137.08 122.367 136.047C121.559 134.269 120.21 133.595 118.464 133.308ZM43.479 149.924C43.6901 149.826 43.9012 149.723 44.1175 149.625C42.3718 148.068 42.5211 145.493 40.8578 143.35C40.7702 146.069 41.7744 147.981 42.7374 149.903C42.8044 151.255 43.2884 152.75 41.2183 153.326C42.1864 153.871 43.5099 152.863 43.7262 154.379C43.7828 154.77 43.7931 155.361 43.5665 155.572C42.5108 156.528 42.1812 155.089 41.5066 154.801C40.2965 154.287 39.3695 154.436 38.5559 155.433C38.2057 155.865 37.4075 155.783 37.7628 156.908C39.2665 161.713 40.5282 166.596 41.9083 171.442C42.3409 172.953 43.1391 174.274 44.9775 173.776C46.8829 173.262 47.0426 171.771 46.5791 170.07C45.8375 167.351 45.0342 164.638 44.4729 161.878C43.9682 159.426 45.544 156.939 47.6399 156.487C50.3899 155.896 51.0284 158.023 51.6412 159.838C52.5424 162.505 53.1604 165.27 53.9226 167.989C54.3706 169.587 55.1173 170.98 57.1205 170.507C59.1856 170.019 59.1135 168.364 58.7272 166.802C57.9496 163.651 57.0742 160.521 56.1987 157.396C54.798 152.411 50.3126 150.71 45.8633 153.429C45.5543 153.619 45.0548 154.369 44.7715 153.336C44.4471 152.154 43.3142 151.28 43.479 149.924ZM80.4126 168.498C82.8227 167.948 85.7065 168.482 87.1845 165.342C84.9804 166.041 82.9102 166.699 80.8401 167.357C80.5259 160.881 77.9768 154.909 76.5813 148.675C76.2362 147.133 75.6955 145.504 73.7541 145.565C71.9826 145.622 71.4779 147.097 71.3749 148.664C66.2355 146.804 62.9088 147.657 60.715 151.321C58.2174 155.49 59.1701 161.662 62.8006 164.92C64.3765 166.334 66.1686 167.259 68.3211 167.351C71.4367 167.485 73.4811 165.589 75.3299 163.291C76.8954 166.776 76.4371 168.662 72.8117 170.26C70.9423 171.083 69.1554 170.8 67.4766 169.592C66.1583 168.647 64.6545 168.23 63.7842 169.998C62.9757 171.653 64.2477 172.635 65.5351 173.462C66.9822 174.398 68.5992 174.382 70.1647 174.166C74.2948 173.596 78.3991 172.897 80.4126 168.498ZM293.198 90.4804C294.79 90.2799 295.619 91.2307 296.103 92.5105C296.68 94.0369 295.155 94.1345 294.414 94.5765C292.359 95.7997 290.119 96.7351 288.1 98.0046C285.659 99.5413 284.933 102.044 285.942 104.465C286.905 106.767 289.429 108.14 292.045 107.708C294.12 107.364 296.067 106.603 297.452 104.994C298.657 103.596 299.656 102.789 301.309 104.419C302.03 105.128 303.086 105.02 303.894 104.306C304.584 103.694 305.037 102.861 304.481 102.029C302.282 98.7292 301.989 94.7821 300.665 91.1948C299.744 88.6918 298.539 86.4305 295.299 86.8982C294.249 87.0472 293.657 85.3872 293.034 86.0913C291.818 87.4738 290.124 87.5714 288.682 88.3064C286.813 89.2623 285.134 90.357 284.331 92.4385C283.769 93.8981 283.805 95.2652 285.366 95.9077C286.952 96.5604 287.683 95.4503 288.1 94.0626C288.862 91.5443 290.86 90.7528 293.198 90.4804ZM98.7507 139.537C92.8131 139.496 88.2041 143.17 87.9569 147.549C87.5965 154.02 91.2373 158.959 96.6908 159.406C101.32 159.786 106.398 156.99 107.428 153.506C107.711 152.55 107.85 151.584 106.861 150.987C105.909 150.417 104.941 150.746 104.41 151.62C103.926 152.416 103.19 152.946 102.706 153.768C100.872 156.903 96.4179 156.805 94.3786 153.727C93.498 152.401 93.5392 151.661 95.321 151.285C97.9113 150.741 100.481 150.052 103.025 149.307C106.141 148.392 106.784 146.819 105.322 143.91C103.818 140.935 101.207 139.747 98.7507 139.537ZM225.624 119.621C222.92 115.746 220.618 112.488 218.358 109.203C217.487 107.939 216.437 107.086 214.949 108.078C213.326 109.162 213.8 110.565 214.763 111.85C217.688 115.746 220.634 119.631 223.585 123.507C224.445 124.637 225.444 125.516 227.056 125.141C228.837 124.73 229.203 123.327 229.393 121.857C229.996 117.113 230.557 112.369 231.119 107.621C231.294 106.135 231.459 104.506 229.43 104.244C227.251 103.966 226.994 105.647 226.834 107.25C226.448 111.12 226.077 114.996 225.624 119.621ZM301.973 83.6089C300.974 85.2638 303.132 85.7623 303.436 87.0421C304.136 90.023 304.965 92.9782 305.758 95.9334C306.222 97.6654 306.644 99.4128 307.221 101.109C307.679 102.455 308.637 103.267 310.182 102.846C311.717 102.43 312.108 101.294 311.887 99.8599C311.809 99.3563 311.675 98.8577 311.547 98.3643C309.888 92.0222 308.205 85.6853 306.593 79.3329C306.412 78.6236 306.042 78.1097 305.645 77.5598C304.698 76.2492 303.137 76.5884 301.917 76.5062C301.294 76.4599 301.603 78.1045 301.448 78.968C301.191 80.4892 302.401 81.9026 301.973 83.6089ZM166.464 138.889C165.177 134.109 164.136 128.965 162.36 124.021C161.927 122.813 160.846 122.427 159.62 122.731C158.209 123.08 157.612 124.17 157.936 125.46C159.188 130.409 160.527 135.338 161.927 140.251C162.303 141.567 163.436 142.096 164.79 141.731C166.042 141.387 166.521 140.436 166.464 138.889ZM214.938 125.804C213.687 121.286 212.338 116.193 210.834 111.146C210.448 109.841 209.212 109.399 207.893 109.856C206.529 110.329 206.153 111.455 206.472 112.75C207.291 116.054 208.275 119.318 209.001 122.643C209.371 124.35 209.65 126.051 210.535 127.582C211.164 128.672 212.096 129.155 213.337 128.759C214.454 128.405 214.923 127.551 214.938 125.804ZM39.524 173.252C38.1078 168.158 36.7432 163.055 35.2343 157.987C34.879 156.8 33.6997 156.368 32.4844 156.733C31.2896 157.093 30.512 158.008 30.8313 159.252C32.1187 164.283 33.4886 169.299 34.9047 174.3C35.2549 175.528 36.2745 176.032 37.5414 175.76C38.8185 175.482 39.3695 174.603 39.524 173.252ZM89.3731 135.821C89.8572 136.242 90.8562 135.888 90.7326 136.967C90.4288 139.66 92.0664 138.319 92.7874 137.769C94.5383 136.432 95.424 134.464 96.2995 132.393C93.1375 132.038 91.5617 134.3 89.3731 135.821ZM31.5008 154.487C32.6234 153.901 33.8387 153.326 34.9717 152.617C35.1468 152.509 31.5935 149.235 31.1969 149.389C29.9713 149.877 28.7817 150.556 28.8796 152.098C28.9723 153.573 29.8889 154.395 31.5008 154.487ZM209.299 105.133C209.135 103.694 208.439 102.712 206.889 102.661C205.473 102.615 204.567 103.452 204.448 104.789C204.314 106.253 205.118 107.261 206.658 107.389C208.218 107.518 208.985 106.572 209.299 105.133ZM234.682 95.332C233.163 95.3886 232.128 96.0259 232.02 97.578C231.912 99.1404 232.849 100.004 234.317 100.107C235.815 100.209 236.794 99.3871 236.907 97.8658C237.025 96.324 236.155 95.5068 234.682 95.332ZM88.5698 125.891C84.8826 125.079 82.3901 127.176 78.9141 127.937C81.01 128.286 86.4172 127.063 88.5698 125.891ZM253.355 137.255C254.38 136.838 254.344 135.456 255.544 135.43C256.079 135.42 256.991 135.661 256.934 134.772C256.867 133.801 255.961 134.084 255.302 134.115C254.879 134.135 254.452 134.212 254.04 134.156C253.504 134.084 253 133.282 252.449 133.986C251.934 134.649 252.325 135.266 252.799 135.816C253.128 136.206 252.686 136.864 253.355 137.255ZM68.9082 130.579C72.0598 131.92 73.7489 130.419 75.4277 128.877C73.4914 129.386 71.5551 129.89 68.9082 130.579ZM78.5639 131.514C80.4075 132.172 82.3489 130.62 84.141 132.074C84.4036 132.29 85.0319 131.601 85.0731 131.082C85.1246 130.404 84.5581 130.342 84.0277 130.275C82.0811 130.039 80.4023 131.077 78.5639 131.514ZM185.219 99.9165C184.565 100.081 183.916 100.286 183.252 100.394C182.588 100.502 181.506 99.9678 181.563 101.176C181.599 101.947 182.485 102.414 183.242 102.507C184.56 102.671 185.034 101.206 186.126 100.77C186.522 100.61 186.054 99.7263 185.219 99.9165ZM282.147 80.7308C279.145 78.7675 278.954 78.9063 277.739 83.5781C279.361 82.8534 280.149 81.2448 282.147 80.7308ZM235.285 135.076C235.367 135.312 235.45 135.548 235.532 135.785C238.498 134.937 241.526 134.264 244.204 132.547C241.227 133.39 238.256 134.233 235.285 135.076ZM187.83 152.74C188.278 151.918 189.21 151.285 189.396 150.155C189.488 149.584 189.195 149.368 188.685 149.533C187.511 149.913 186.924 150.777 186.872 151.984C186.857 152.432 187.104 152.776 187.83 152.74ZM307.37 69.0899C308.029 67.7948 308.709 66.5664 309.744 65.5694C307.633 65.7595 306.742 66.8851 307.37 69.0899ZM23.3848 195.454C25.9803 195.845 27.5767 194.976 29.1062 193.897C27.2162 193.809 25.5323 194.395 23.3848 195.454ZM272.805 81.7176C272.476 80.7822 274.886 80.7822 273.552 79.5898C273.181 79.2609 272.672 78.8395 272.229 79.2609C271.286 80.1655 272.419 80.849 272.805 81.7176ZM240.852 94.6228C242.324 94.5611 243.818 94.5611 244.837 93.23C243.452 93.5332 241.856 93.1221 240.852 94.6228ZM126.6 132.717C126.724 132.516 127.249 132.043 127.193 131.658C127.095 131 126.549 130.409 125.792 130.414C125.169 130.419 125.024 131.057 124.968 131.55C124.88 132.362 125.514 132.496 126.6 132.717ZM286.766 109.908C285.505 110.319 284.562 110.648 284.31 111.83C284.289 111.927 284.851 112.313 285.067 112.261C286.154 112.015 286.565 111.213 286.766 109.908ZM229.749 91.3335C229.218 92.2278 228.848 92.9319 229.471 93.5898C229.749 93.8879 230.393 93.7696 230.583 93.3945C231 92.5876 230.429 92.0428 229.749 91.3335ZM18.8119 137.825C17.2515 138.673 16.7469 139.275 17.3597 140.344C17.5193 140.621 17.7305 141.089 18.0652 140.883C19.1157 140.246 18.2248 139.228 18.8119 137.825ZM290.181 86.4202C289.212 85.1713 288.316 84.6368 287.091 84.719C287.812 85.5362 288.419 86.5076 290.181 86.4202ZM24.0903 162.048C25.007 161.749 25.9082 162.839 27.0566 162.119C25.9648 161.102 25.0739 160.763 24.0903 162.048ZM43.4223 144.799C44.1278 144.902 44.1278 144.455 44.2978 144.085C44.6943 143.227 44.0815 143.386 43.6283 143.345C43.2163 143.309 42.6293 143.227 42.6653 143.766C42.6911 144.152 43.1854 144.507 43.4223 144.799ZM176.424 98.7498C176.465 98.3952 176.388 98.0303 176.012 97.984C175.322 97.8966 175.27 98.4928 175.162 98.9605C175.08 99.3049 175.167 99.6749 175.559 99.7212C176.238 99.8034 176.295 99.2226 176.424 98.7498ZM305.439 68.9511C305.192 68.6633 305.032 68.3447 304.77 68.2059C304.517 68.0774 304.265 68.319 304.327 68.6068C304.414 68.9871 304.502 69.4548 305.007 69.4908C305.12 69.5062 305.259 69.1824 305.439 68.9511ZM172.438 101.397C172.288 101.643 172.052 101.864 172.093 102.003C172.149 102.193 172.402 102.43 172.597 102.455C172.999 102.512 173.236 102.245 173.061 101.854C172.989 101.674 172.706 101.582 172.438 101.397ZM44.1742 141.741C44.066 141.598 43.963 141.356 43.7777 141.243C43.4944 141.073 43.2833 141.274 43.3296 141.551C43.3657 141.762 43.5459 141.993 43.7313 142.122C44.0609 142.348 44.133 142.076 44.1742 141.741ZM171.197 103.108C171.083 103.041 170.975 102.964 170.857 102.918C170.836 102.908 170.713 103.041 170.723 103.072C170.769 103.185 170.857 103.288 170.929 103.396C171.022 103.303 171.109 103.206 171.197 103.108ZM251.748 82.4423C251.635 82.5296 251.517 82.6118 251.419 82.7095C251.403 82.7249 251.496 82.838 251.537 82.9048C251.65 82.8174 251.769 82.7352 251.867 82.6375C251.882 82.6221 251.79 82.5091 251.748 82.4423ZM302.993 69.5422L303.163 69.6604L303.194 69.4754L302.993 69.5422Z" fill="#02BF39"/>
<path d="M104.925 94.3092C108.154 86.7594 112.989 80.3556 118.927 74.7433C119.231 76.0693 119.586 77.3901 119.828 78.7264C119.983 79.5949 120.632 80.0164 121.239 79.8005C121.677 79.6412 121.713 78.7007 121.363 78.1867C120.477 76.8762 120.142 75.396 119.828 73.8953C123.279 70.1846 127.403 67.4092 131.621 64.6031C137.553 60.656 143.898 57.8755 150.634 55.8968C162.169 52.5048 173.874 51.96 185.693 54.3087C186.81 54.5297 186.805 54.54 186.764 55.4137C184.375 55.7169 182.181 56.6421 179.966 57.4952C179.544 57.6597 179.153 57.9166 179.354 58.4306C179.56 58.9497 179.977 58.9291 180.384 58.6207C182.279 57.1714 184.771 57.2794 186.8 56.1744C190.111 55.0488 193.191 56.0356 196.27 57.156C204.464 60.1318 211.962 64.3307 218.728 69.8248C218.713 71.0994 217.539 70.8013 216.869 71.1302C215.747 71.6801 214.392 71.7624 213.069 72.9393C215.695 72.6053 217.801 72.1067 219.794 71.1713C220.551 71.3923 221.236 71.7058 221.612 72.8057C216.426 74.2088 211.277 75.6375 206.106 76.9841C196.538 79.4767 186.955 81.8974 177.386 84.3952C175.162 84.976 173.138 86.7028 170.63 85.4539C170.398 86.9084 169.111 86.8365 168.132 87.0934C153.09 90.984 138.166 95.3371 123.067 99.017C116.29 100.667 109.622 102.743 102.891 104.583C102.278 104.748 101.531 105.297 100.955 104.742C100.259 104.074 100.8 103.247 101.13 102.615C102.443 100.091 102.422 96.8841 105.028 95.0236C112.377 93.1272 119.751 91.3181 126.925 88.8151C127.841 88.4965 129.762 88.5171 129.36 87.3658C128.65 85.3306 127.568 87.6433 126.59 87.6331C126.425 87.6331 126.26 87.7256 126.095 87.7616C118.824 89.2263 111.954 92.0222 104.925 94.3092ZM195.034 67.6354C193 68.0979 190.745 67.9078 188.901 69.686C191.291 69.8865 193.021 68.5656 194.998 68.211C197.82 67.3476 200.642 66.479 203.459 65.6156C203.423 65.3894 203.387 65.1633 203.351 64.9372C202.316 65.3843 201.461 65.0759 200.658 64.5363C199.654 67.1317 196.672 66.1655 195.034 67.6354ZM152.297 79.5692C152.107 79.9341 152.143 80.2785 152.4 80.5971C152.41 81.6302 152.416 82.6632 152.426 83.6962C149.341 84.6265 146.02 84.7755 142.482 86.5795C146.607 86.893 149.733 85.6801 152.879 84.5751C153.662 84.5134 154.393 84.3027 154.985 83.7528C156.407 83.429 158.296 83.5472 157.478 81.1162C158.178 79.5898 159.321 79.3431 160.861 79.7851C162.421 80.2374 164.033 80.4995 165.625 80.8387C166.526 81.0288 166.989 80.8027 166.624 79.7851C166.345 79.009 166.284 78.0582 165.784 77.4775C163.657 75.0259 163.673 72.6618 165.707 70.2C166.134 69.6809 166.438 69.0436 166.747 68.4371C167.01 67.9283 167.648 67.4606 167.329 66.849C166.912 66.037 166.042 66.3916 165.48 66.5715C161.077 68.0003 157.936 66.3968 155.608 62.6655C155.521 62.5216 155.387 62.4034 155.284 62.2698C154.527 61.2881 153.739 61.2162 153.713 62.5884C153.6 67.7073 151.071 70.6985 146.128 71.8755C144.959 72.153 145.16 72.8725 146.092 73.4019C147.132 73.9929 148.136 74.6919 149.243 75.1236C151.324 75.9356 152.385 77.3336 152.297 79.5692ZM106.068 99.2586C112.279 97.5934 117.799 95.9642 123.073 93.5486C117.49 93.2711 112.933 97.136 107.474 97.3878C107.114 97.4032 106.784 98.2718 106.068 99.2586ZM140.942 82.5912C143.543 82.7403 145.726 81.7073 147.734 80.186C145.309 80.5355 143.048 81.3526 140.942 82.5912ZM199.597 75.5656C196.157 75.1904 194.7 76.208 195.019 78.9268C195.235 76.0281 198.341 77.2462 199.597 75.5656ZM140.623 88.0853C138.892 86.5641 137.646 87.6947 136.41 88.8717C137.816 88.6096 139.217 88.3475 140.623 88.0853ZM119.308 80.8798C119.257 80.9312 119.2 80.9826 119.148 81.034C119.262 81.1162 119.37 81.2036 119.493 81.2704C119.509 81.2807 119.586 81.1676 119.638 81.1111C119.53 81.034 119.416 80.9518 119.308 80.8798ZM211.874 73.1603C211.925 73.2169 211.992 73.3402 212.034 73.3351C212.183 73.3042 212.322 73.2271 212.461 73.1655C212.404 73.1038 212.332 72.9804 212.291 72.9907C212.142 73.0267 212.003 73.1038 211.874 73.1603Z" fill="#02BF39"/>
<path d="M158.462 199.519C145.958 196.667 134.711 191.373 124.86 182.266C163.06 172.049 200.89 161.929 238.823 151.784C233.781 172.964 210.958 198.019 178.618 200.527C178.618 200.157 178.468 199.823 178.092 199.802C177.433 199.766 177.649 200.347 177.552 200.701C176.135 200.753 174.719 200.799 173.303 200.85C173.236 200.28 173.36 199.668 172.917 199.175C171.938 198.08 170.955 199.077 170.157 199.35C168.838 199.797 170.404 200.29 170.368 200.82C166.717 200.825 163.117 200.29 159.528 199.704C159.502 199.17 160.496 198.517 159.734 198.214C158.977 197.921 159.111 199.267 158.462 199.519ZM184.71 190.027C182.531 190.304 184.226 192.632 182.706 193.259C182.243 193.45 182.434 194 182.696 194.375C182.918 194.693 183.309 194.878 183.541 194.534C184.246 193.486 184.972 192.422 185.467 191.27C185.668 190.813 185.261 190.119 184.71 190.027ZM187.058 185.818C185.904 186.635 184.488 186.126 183.654 187.293C183.551 187.436 183.829 188.125 183.963 188.13C185.286 188.218 186.461 187.889 187.187 186.65C187.218 186.599 187.166 186.496 187.058 185.818ZM194.932 186.568C196.034 186.239 197.218 186.095 198.398 184.82C196.616 185.005 195.385 185.047 194.932 186.568ZM151.916 189.497C151.417 189.492 151.098 189.718 151.17 190.232C151.247 190.746 151.53 191.235 152.091 191.265C152.632 191.296 153.091 190.983 152.993 190.351C152.91 189.79 152.457 189.554 151.916 189.497ZM167.448 194.971C166.336 194.606 165.203 194.339 163.683 195.058C165.264 195.798 166.356 195.572 167.448 194.971ZM219.805 173.843C221.674 172.871 221.674 172.871 221.751 171.705C221.128 172.311 220.299 172.624 219.805 173.843Z" fill="#02BF39"/>
<path d="M227.385 20.0285C228.055 19.2062 234.342 16.6416 235.099 16.8831C235.836 17.1247 235.769 17.8082 235.867 18.3633C236.552 22.1357 237.293 25.9029 237.86 29.6958C238.117 31.433 238.457 32.1987 240.563 31.6797C244.122 30.806 247.788 30.3897 251.409 29.7575C252.969 29.4851 253.721 29.5211 253.87 31.6745C254.128 35.3544 254.22 39.024 253.865 42.6627C253.628 45.0988 254.668 45.3918 256.62 45.1605C259.952 44.7699 263.294 45.0063 266.636 45.0783C268.691 45.1245 269.515 46.2346 269.19 48.1517C268.552 51.924 267.769 55.6707 267.151 59.4482C266.904 60.9541 265.735 60.9233 264.731 61.3036C263.588 61.7404 263.047 61.1699 262.439 60.3117C256.532 52.0577 249.524 44.7134 241.521 38.6128C186.605 -3.2636 112.655 11.6254 77.1633 65.0194C69.0937 77.1588 63.6659 90.3673 60.7048 104.614C60.5658 105.277 60.3083 105.919 60.1023 106.567C56.3842 107.389 52.97 109.018 49.4836 110.468C49.4064 110.437 49.2983 110.427 49.2519 110.365C44.9004 105.369 44.885 105.349 50.5651 101.941C52.8413 100.579 55.1535 99.2637 57.5172 98.0662C58.6141 97.5111 58.8149 97.0794 58.1403 95.9847C56.0753 92.6286 54.1544 89.1852 52.1203 85.8086C51.2757 84.4106 51.0234 83.4547 53.0112 82.8123C56.6675 81.625 60.2208 80.1243 63.8925 78.9936C65.4941 78.5002 65.7207 77.9606 65.149 76.4804C63.7277 72.816 62.5072 69.0745 61.1014 65.4049C60.5349 63.9196 60.7769 63.236 62.4351 62.979C66.0708 62.4086 69.6653 61.5811 73.3113 61.1134C75.3506 60.8513 76.0458 60.4144 75.4845 58.1325C74.5884 54.4989 74.2486 50.7265 73.5585 47.0364C73.2753 45.5305 73.7439 45.0063 75.2167 45.0269C79.1459 45.0731 83.0803 44.9549 86.9992 45.1194C88.7604 45.1913 89.2136 44.7339 89.0179 43.0019C88.5853 39.1782 88.8686 35.3338 89.0024 31.4946C89.0591 29.8192 89.6822 29.5057 91.1859 29.6701C95.0276 30.0967 98.8487 30.6415 102.567 31.6745C104.364 32.1731 104.776 31.5717 105.003 29.9631C105.523 26.2472 106.228 22.5571 106.81 18.8464C107.078 17.1452 107.701 16.5234 109.529 17.248C113.026 18.6357 116.667 19.6687 120.132 21.1335C121.935 21.8941 122.445 21.3802 122.975 19.7561C124.113 16.2664 125.509 12.8538 126.662 9.36922C127.249 7.5961 127.872 7.02562 129.685 8.18714C132.78 10.171 136.169 11.718 139.181 13.8097C141.287 15.2745 142.122 14.0873 142.724 12.5968C144.022 9.39492 146.18 6.70184 147.724 3.66441C148.863 1.41846 149.939 1.66515 151.54 3.09907C154.285 5.55059 157.179 7.83252 159.898 10.3097C160.98 11.2965 161.521 11.3839 162.411 10.1042C164.703 6.79435 167.427 3.81859 170.131 0.837699C171.094 -0.221032 171.691 -0.344379 172.716 0.801723C175.347 3.73122 178.046 6.60932 180.296 9.84719C181.244 11.2092 181.852 11.4507 183.17 10.171C185.925 7.48817 188.86 4.98011 191.96 2.67763C193.243 1.72683 194.005 1.68057 194.849 3.21213C196.708 6.57849 198.835 9.80094 200.617 13.2084C201.456 14.8119 202.074 14.8171 203.465 13.9177C206.699 11.831 209.979 9.81122 213.486 8.182C214.892 7.52929 215.598 7.68861 216.128 9.24073C217.348 12.7972 218.852 16.2613 219.975 19.8435C220.557 21.6885 221.288 21.8324 222.884 21.1181C224.167 20.5424 225.428 19.6276 226.999 19.9822C227.128 21.8324 227.813 23.4565 229.038 24.8596C228.879 23.1122 228.564 21.4213 227.385 20.0285Z" fill="#02BF39"/>
<path d="M279.845 183.834C280.54 185.833 281.184 187.853 281.951 189.826C282.451 191.122 282.096 191.713 280.751 191.939C276.791 192.597 272.852 193.357 268.887 193.969C267.599 194.169 266.765 194.313 267.275 195.963C268.454 199.761 268.397 203.796 269.355 207.635C269.793 209.392 269.165 209.973 267.481 209.953C263.809 209.906 260.132 210.061 256.471 209.865C254.452 209.757 253.824 210.163 253.968 212.317C254.2 215.889 253.937 219.491 254.025 223.079C254.076 225.237 253.159 225.654 251.223 225.263C247.541 224.518 243.818 223.999 240.136 223.243C238.766 222.961 238.246 223.094 238.035 224.631C237.509 228.516 236.727 232.371 236.109 236.246C235.841 237.916 235.166 238.358 233.503 237.711C229.914 236.323 226.201 235.244 222.653 233.764C220.969 233.06 220.562 233.471 220.057 235.028C218.868 238.682 217.39 242.244 216.164 245.883C215.587 247.594 214.856 247.723 213.404 246.833C210.19 244.875 206.853 243.118 203.66 241.123C202.234 240.234 201.539 240.039 200.627 241.828C198.892 245.24 196.77 248.452 194.88 251.788C194.149 253.078 193.5 253.556 192.172 252.415C189.267 249.912 186.033 247.789 183.499 244.855C182.423 243.606 181.558 243.287 180.384 245.035C178.144 248.37 175.353 251.294 172.654 254.275C171.856 255.159 171.305 255.288 170.414 254.327C167.618 251.31 164.76 248.324 162.535 244.875C161.613 243.447 161.206 243.549 160.125 244.5C157.112 247.142 154.028 249.701 150.964 252.281C149.98 253.109 149.388 253.659 148.317 251.937C146.107 248.38 143.775 244.906 141.993 241.113C141.401 239.854 141.04 240.013 139.995 240.671C136.534 242.84 132.945 244.814 129.433 246.905C128.192 247.645 127.46 247.481 126.925 246.047C125.55 242.372 123.923 238.775 123.021 234.946C122.635 233.296 121.919 233.121 120.498 233.661C116.749 235.074 112.938 236.344 109.205 237.793C107.722 238.369 107.057 237.927 106.99 236.493C106.815 232.582 105.317 228.897 105.018 225.016C104.894 223.387 104.405 222.848 102.634 223.243C99.2194 223.999 95.7331 224.461 92.2776 225.042C89.0797 225.577 89.0797 225.577 89.0488 222.267C89.0436 221.758 89.0797 221.249 89.1003 220.74C89.538 220.319 89.4247 219.975 88.9612 219.671C88.7707 218.854 88.7295 218.047 89.0127 217.24C89.4402 217.502 89.9963 217.672 90.259 218.047C90.6967 218.679 91.1859 218.839 91.7318 218.412C92.015 218.191 92.2313 217.667 92.2004 217.302C92.1386 216.541 91.4022 216.947 90.9851 216.778C90.3568 216.521 89.7028 216.336 89.0591 216.125C89.09 214.763 89.1157 213.401 89.1466 212.039C89.5843 211.921 90.2744 212.019 90.2075 211.361C90.1663 210.939 89.5638 211.016 89.1724 210.98C89.1724 209.274 87.8335 210.014 87.0146 209.809C87.267 209.177 87.2618 208.544 87.0352 207.912L87.0816 207.871C87.8283 207.871 88.5802 207.871 89.7388 207.871C88.6677 207.033 88.6574 206.206 89.1054 205.342L89.2239 205.245C90.8821 206.853 92.5454 208.467 94.2036 210.076C94.3015 210.821 94.5538 211.412 95.455 211.412C96.6034 213.154 98.6169 213.802 100.152 215.077C110.997 224.076 123.243 230.593 136.617 234.982C156.742 241.586 177.145 242.234 197.718 237.428C215.5 233.276 231.232 225.057 245.183 213.298C256.373 203.862 264.999 192.406 271.935 179.676C274.86 174.305 277.054 168.528 278.995 162.69C281.39 155.484 282.863 148.089 283.816 140.585C283.991 139.223 284.356 138.463 285.788 138.093C287.173 137.733 288.018 138.093 288.883 139.136C290.979 141.67 293.234 144.08 295.294 146.645C297.534 149.44 297.416 149.99 294.367 151.82C291.509 153.537 288.636 155.238 285.669 156.744C284.325 157.427 284.135 157.89 284.938 159.185C287.024 162.541 288.924 166.015 290.943 169.418C291.777 170.826 291.545 171.607 289.918 172.162C286.457 173.344 283.1 174.85 279.603 175.888C277.456 176.525 277.049 177.394 278.115 179.239C278.352 179.65 278.326 180.216 278.424 180.714C277.662 181.783 278.414 183.438 279.845 183.834ZM267.362 202.151C264.35 200.316 262.202 201.884 259.406 203.857C262.522 203.261 264.999 203.132 267.362 202.151ZM92.36 211.911C92.669 211.89 93.1479 211.998 93.0089 211.474C92.9111 211.099 92.6433 210.698 92.3343 210.472C92.015 210.235 91.706 210.538 91.603 210.873C91.4125 211.515 91.8193 211.772 92.36 211.911ZM188.891 244.089C188.036 243.858 187.537 244.079 187.233 244.629C187.161 244.757 187.315 245.184 187.418 245.204C188.186 245.348 188.634 244.952 188.891 244.089ZM206.529 240.995L206.642 241.072L206.663 240.954L206.529 240.995Z" fill="#02BF39"/>
<path d="M242.561 180.519C242.16 179.676 241.923 178.684 241.315 178.026C240.213 176.829 240.991 176.171 241.655 175.23C242.396 174.182 243.123 173.956 244.225 174.547C244.915 174.922 245.667 175.056 246.506 174.655C245.873 172.943 244.307 172.044 242.984 171.18C241.665 170.322 242.082 169.86 242.767 169.073C243.267 168.498 243.782 167.932 244.219 167.305C244.714 166.596 245.188 166.442 245.867 167.064C249.956 170.805 254.576 173.873 258.87 177.358C259.478 177.851 260.977 178.329 259.818 179.434C258.68 180.524 258.52 183.027 255.884 182.21C253.401 181.439 250.832 180.935 248.298 180.318C248.092 180.298 247.886 180.282 247.68 180.262C247.768 180.437 247.85 180.606 247.938 180.781C249.101 183.042 250.147 185.381 251.46 187.55C252.938 189.981 250.61 190.87 249.688 192.232C248.586 193.861 247.999 191.959 247.402 191.517C243.174 188.362 239.034 185.098 234.857 181.87C234.085 181.274 233.23 180.663 234.384 179.702C235.388 178.864 235.578 176.407 237.751 177.805C239.25 178.766 240.61 179.938 242.031 181.017C242.293 181.243 242.484 181.855 242.906 181.459C243.267 181.13 242.85 180.781 242.561 180.519ZM246.918 174.845C246.861 174.747 246.805 174.639 246.743 174.536C246.686 174.593 246.578 174.66 246.588 174.696C246.614 174.809 246.691 174.917 246.743 175.025C246.794 174.968 246.851 174.912 246.918 174.845Z" fill="#02BF39"/>
<path d="M168.045 32.2553C167.865 29.7935 167.798 27.3111 167.479 24.8647C167.134 22.1973 169.194 23.1636 170.347 22.8501C171.671 22.4903 172.567 22.6856 172.665 24.4844C172.943 29.6033 173.447 34.7068 173.772 39.8206C173.828 40.6892 174.652 42.1334 173.087 42.3595C171.449 42.5959 169.523 43.6906 168.143 41.7633C166.995 40.1701 165.852 38.5563 164.919 36.8346C164.482 36.0225 163.977 35.5343 162.906 35.0357C162.602 37.0864 162.89 38.9983 163.179 40.8433C163.575 43.3617 162.015 43.2795 160.316 43.521C158.395 43.7934 158.07 43.0276 157.983 41.311C157.741 36.4491 157.241 31.6077 156.927 26.7458C156.865 25.7641 156.036 24.1709 157.545 23.8985C159.208 23.5953 161.217 22.7216 162.561 24.9984C164.065 27.5424 165.826 29.9323 167.474 32.3889C167.669 32.3529 167.86 32.3067 168.045 32.2553ZM162.901 33.9719C162.777 34.1312 162.592 34.2648 162.612 34.3625C162.654 34.5732 162.798 34.7634 162.901 34.9587C162.999 34.8456 163.184 34.7222 163.169 34.6246C163.138 34.4036 163.004 34.2032 162.901 33.9719Z" fill="#02BF39"/>
<path d="M204.253 207.563C203.022 206.586 202.61 205.548 202.244 204.443C201.328 201.714 202.177 200.434 205.046 200.182C206.034 200.095 206.307 200.784 206.498 201.303C208.223 206 209.531 210.914 211.509 215.436C213.455 219.887 210.18 219.219 208.275 220.098C207.039 220.668 205.705 221.043 204.392 221.419C201.75 222.169 199.268 222.02 197.383 219.718C195.302 217.184 194.865 213.781 196.538 211.191C197.342 209.947 196.78 209.644 195.931 209.104C194.2 208.015 192.506 206.874 190.796 205.748C190.745 205.712 190.745 205.605 190.719 205.512C193.835 203.657 196.832 202.839 199.87 205.82C200.864 206.802 202.085 207.928 204.253 207.563ZM202.929 216.824C203.851 216.223 205.952 216.901 205.798 214.943C205.71 213.864 205.756 211.798 203.882 211.905C202.44 211.988 200.787 212.635 200.627 214.542C200.504 215.986 201.379 216.701 202.929 216.824Z" fill="#02BF39"/>
<path d="M150.309 216.541C150.716 209.685 152.21 205.954 160.511 207.193C160.681 207.218 160.841 207.29 161.011 207.306C162.767 207.496 165.146 206.931 166.057 208.298C166.788 209.398 166.001 211.53 165.831 213.196C165.419 217.276 164.95 221.352 164.569 225.433C164.435 226.867 163.992 227.627 162.349 227.35C160.243 226.995 158.08 226.939 155.984 226.527C151.205 225.587 149.269 222.678 150.248 218.042C150.366 217.477 150.886 216.989 150.309 216.541ZM155.181 218.556C154.769 221.46 156.345 221.753 158.065 222.061C160.326 222.472 159.795 220.781 159.97 219.661C160.284 217.641 160.537 215.611 160.779 213.581C160.841 213.057 161.227 212.507 160.434 212.05C158.384 210.878 156.041 211.926 155.67 214.316C155.423 215.92 155.3 217.538 155.181 218.556Z" fill="#02BF39"/>
<path d="M232.643 207.881C231.052 207.676 231.052 207.676 229.038 209.454C226.582 211.618 226.056 211.541 224.434 209.392C223.394 208.015 223.595 207.234 225.027 206.406C226.278 205.682 227.416 204.757 228.595 203.909C229.471 203.287 230.629 202.876 229.527 201.38C228.508 200.003 227.823 200.943 227.014 201.467C225.943 202.166 224.738 202.742 223.842 203.621C222.344 205.091 221.72 204.258 220.778 202.978C219.789 201.637 219.764 200.856 221.283 200.018C222.472 199.36 223.538 198.476 224.666 197.7C225.459 197.155 226.221 196.734 225.387 195.511C224.589 194.344 223.976 194.673 223.126 195.315C222.04 196.143 220.891 196.893 219.774 197.68C217.601 199.211 215.767 198.522 215.041 195.958C214.81 195.13 215.35 194.884 215.814 194.56C218.816 192.448 221.854 190.387 224.815 188.223C225.799 187.509 226.268 187.827 226.855 188.67C230.027 193.229 233.189 197.787 236.459 202.279C237.319 203.461 237.005 204.017 235.939 204.674C234.852 205.348 233.817 206.119 232.808 206.9C232.54 207.111 231.706 207.398 232.607 207.917L232.643 207.881Z" fill="#02BF39"/>
<path d="M92.6844 80.109C94.3272 80.3659 94.801 81.7074 95.2541 82.9819C96.2686 85.8395 94.9967 89.6684 92.3909 91.9966C89.9139 94.2066 87.1897 94.1963 84.3883 92.8446C82.385 91.8784 80.4333 90.7939 78.5382 89.6273C75.2578 87.6075 74.2639 83.1464 76.4783 79.9599C77.534 78.4438 78.4558 76.6655 80.5208 76.1156C81.5456 75.8432 82.9721 74.8924 83.3892 76.1978C83.7857 77.4416 84.1359 79.2969 82.5704 80.3608C79.2077 82.6479 79.2489 84.2 82.797 86.1581C83.9969 86.8211 85.1813 87.5047 86.4018 88.1317C88.7398 89.3395 90.501 88.4247 90.7842 85.8806C90.8872 84.9555 90.6761 84.0869 89.7852 83.722C88.8634 83.3417 88.6934 84.2977 88.3741 84.8373C87.1846 86.852 86.2267 84.9247 85.2122 84.6369C83.8784 84.2617 83.9866 83.3211 84.7487 82.5143C85.8353 81.3681 85.6448 79.5231 87.6429 78.7316C89.6873 77.9247 89.5122 77.4776 91.9892 79.5334C90.1868 80.1604 88.2763 80.5664 86.2576 82.3138C88.9252 81.7896 90.8717 81.1574 92.6844 80.109Z" fill="#02BF39"/>
<path d="M115.307 56.4416C114.138 56.0099 113.283 55.2801 112.614 54.1854C110.966 51.4923 109.21 48.8661 107.449 46.2449C106.903 45.4329 106.604 44.8367 107.685 44.184C110.101 42.7347 112.387 41.0644 114.864 39.7332C117.145 38.5049 119.561 38.5923 121.538 40.4528C123.68 42.4623 125.225 44.8984 124.098 47.9512C123.526 49.4982 124.103 49.858 125.313 50.228C127.187 50.8036 129.036 51.4512 131.081 52.1245C129.906 53.8411 128.001 54.3345 126.58 55.4394C125.987 55.8969 124.942 55.5422 124.772 55.0026C123.711 51.5746 120.544 55.1054 119.087 53.2089C119.18 54.8124 117.362 54.8638 116.836 55.9637L116.867 55.9483C116.054 55.2647 115.595 55.6553 115.286 56.4776L115.307 56.4416ZM119.422 46.3477C119.236 45.1245 118.649 44.0966 117.362 44.184C115.858 44.2868 114.045 44.8778 113.968 46.4968C113.922 47.463 114.9 49.4468 116.296 49.2824C117.645 49.1179 119.113 48.1054 119.422 46.3477Z" fill="#02BF39"/>
<path d="M152.374 44.4256C151.37 45.3455 150.093 45.361 149.032 45.8646C147.565 46.5585 146.617 46.0137 146.416 44.5592C146.267 43.4748 145.541 43.1818 144.882 43.2795C143.63 43.4594 142.436 43.9887 141.21 44.3382C139.449 44.8367 140.242 46.245 140.118 47.3191C140 48.3264 136.41 50.6598 135.483 50.2949C134.835 50.043 134.984 49.4674 134.989 48.9843C135.041 42.9968 135.159 37.0145 135.133 31.0321C135.123 29.2539 136.405 29.2898 137.466 28.889C138.486 28.5086 139.433 27.8457 140.386 29.1614C142.94 32.6819 145.881 35.9043 148.347 39.5122C149.516 41.2288 151.175 42.6319 152.374 44.4256ZM139.593 34.8199L139.485 34.8353L139.639 34.8456C139.026 35.9814 139.516 37.1686 139.49 38.325C139.48 38.8698 139.325 39.6767 140.113 39.7692C140.643 39.8309 141.313 39.6048 141.761 39.281C142.487 38.7567 141.787 38.2325 141.519 37.7802C140.916 36.7781 140.242 35.8067 139.593 34.8199Z" fill="#02BF39"/>
<path d="M126.729 208.288C126.729 205.476 126.817 202.66 126.703 199.848C126.616 197.721 127.362 197.7 129.077 198.399C130.864 199.129 132.409 199.674 131.76 202.12C131.183 204.299 133.212 204.212 134.381 204.829C135.499 205.42 136.524 205.743 137.497 204.402C138.053 203.641 138.352 202.413 140.031 202.948C144.248 204.304 144.398 204.474 141.313 207.696C138.311 210.826 135.968 214.573 132.394 217.163C132.157 217.338 131.997 217.662 131.868 217.945C131.343 219.091 130.977 220.581 129.221 219.856C127.702 219.229 125.653 219.199 125.977 216.464C126.296 213.771 126.044 211.011 126.044 208.282C126.265 208.288 126.497 208.288 126.729 208.288ZM130.777 213.437C131.431 212.543 132.085 211.654 132.739 210.76C133.202 210.127 133.774 209.526 132.594 208.966C131.621 208.503 131.153 208.663 130.643 209.696C130.025 210.945 130.782 212.147 130.777 213.437ZM141.164 204.603C138.887 205.091 138.079 206.268 137.997 208.051C139.335 207.321 140.298 206.273 141.164 204.603Z" fill="#02BF39"/>
<path d="M93.7195 63.6576C91.706 64.0944 91.5051 62.2493 91.0262 61.206C90.3722 59.7927 91.7626 58.8779 92.5711 57.8551C93.4002 56.8066 94.2087 56.9917 95.2644 57.4439C101.058 59.9314 106.877 62.3624 112.887 64.8962C112.284 65.6414 111.852 66.1553 111.445 66.6796C110.348 68.0981 109.21 69.203 107.237 67.9901C104.838 66.5151 104.271 69.0386 103.015 70.0305C101.727 71.0481 102.639 71.9938 103.154 72.9394C103.895 74.3065 102.299 77.8374 100.79 78.2023C100.352 78.3102 100.146 78.0738 99.9867 77.7808C97.7157 73.5819 95.4498 69.3829 93.2148 65.1686C92.9883 64.742 93.2148 64.3463 93.7247 64.1972C94.2911 64.2692 95.3365 64.2743 95.3571 64.4182C95.6815 66.844 96.9329 65.4564 97.9268 65.0966C98.1019 65.2765 98.2564 65.4769 98.4469 65.6363C98.895 66.0166 98.9619 67.101 99.894 66.5665C100.368 66.2941 100.96 65.8727 100.893 65.2251C100.831 64.6032 100.28 64.3822 99.6829 64.1612C98.8435 63.8477 98.0916 63.3081 97.3037 62.8609C96.0008 62.604 94.8885 63.2515 93.7195 63.6576Z" fill="#02BF39"/>
<path d="M220.093 46.0445C219.243 45.325 220.211 45.0577 220.5 44.8162C222.786 42.894 225.155 41.0695 227.437 39.1422C228.477 38.2633 229.424 38.3353 229.944 39.4608C230.856 41.4447 231.963 43.4028 231.417 45.7824C230.387 50.264 229.404 54.7559 228.523 59.2684C228.194 60.949 227.776 61.1546 226.252 60.25C224.316 59.1039 223.028 58.1377 224.017 55.5165C224.805 53.4299 222.271 53.4351 221.288 52.4483C220.515 51.6722 219.697 51.7647 218.852 52.5819C218.213 53.1986 217.606 54.3859 216.632 54.0312C215.299 53.543 214.058 52.6898 212.92 51.811C212.126 51.1994 213.059 50.8242 213.429 50.4645C215.438 48.5166 217.894 47.3705 220.531 46.5533C221.205 46.3683 221.875 46.1884 222.549 46.0034C223.281 45.6231 224.233 46.4814 224.851 45.5974C224.965 45.4329 224.975 44.9909 224.872 44.9241C224.038 44.3793 223.332 45.2119 222.529 45.2016C222.39 45.2016 222.246 45.361 222.107 45.4483C221.427 45.5974 220.675 45.5203 220.093 46.0445ZM226.942 45.1965C225.799 45.6693 225.171 46.7435 224.269 47.5041C223.322 48.311 223.914 48.7581 224.635 49.2258C225.356 49.6935 225.933 49.7038 226.139 48.7479C226.396 47.5452 227.442 46.5122 226.911 45.1451C227.03 45.1554 227.148 45.1605 227.267 45.1708C227.261 45.0988 227.256 45.0269 227.251 44.9549C227.143 45.0372 227.045 45.1143 226.942 45.1965Z" fill="#02BF39"/>
<path d="M196.739 30.4101C193.006 30.0555 193.016 30.0607 192.378 33.8279C191.852 36.9321 191.24 40.0261 190.781 43.1406C190.498 45.0833 189.205 44.3741 188.278 44.1171C187.269 43.8344 185.333 44.5745 185.698 42.3183C186.306 38.5305 186.837 34.7273 187.64 30.9858C188.016 29.2332 187.475 28.8015 185.884 28.5342C182.542 27.9689 182.552 27.8404 183.33 24.6694C183.577 23.6569 183.927 23.2509 185.081 23.4719C189.2 24.2582 193.335 24.988 197.486 25.6047C199.788 25.9491 198.681 27.4447 198.583 28.5085C198.495 29.5005 198.593 30.9755 196.739 30.4101Z" fill="#02BF39"/>
<path d="M83.0031 209.408C80.315 210.266 77.5753 209.886 74.846 209.783C74.0014 209.752 73.3217 209.516 73.6255 208.426C74.0426 208.293 74.7842 208.637 74.7687 207.887C74.7584 207.465 74.1508 207.45 73.7439 207.403C73.7903 204.798 74.3465 202.269 74.8769 199.735C77.632 199.432 79.8772 196.6 82.9979 198.122C83.4048 198.337 83.688 198.646 83.7601 199.119C83.0855 199.576 83.1009 199.946 83.894 200.229C86.5512 200.964 87.5039 203.503 89.2239 205.229L89.1055 205.327C86.5306 204.654 87.437 206.756 87.0817 207.856L87.0353 207.897C85.8457 208.822 84.7179 209.896 83.0031 209.408Z" fill="#02BF39"/>
<path d="M180.554 206.833C181.512 206.622 181.888 207.095 181.991 208.046C182.603 213.622 183.304 219.188 183.865 224.77C184.123 227.339 181.733 226.127 180.631 226.723C179.586 227.293 178.942 226.615 178.813 225.417C178.314 220.607 177.768 215.806 177.248 210.996C177.222 210.744 177.268 210.482 177.248 210.23C176.99 207.126 177.335 206.761 180.554 206.833Z" fill="#02BF39"/>
<path d="M213.224 31.3149C212.379 33.0263 211.967 34.784 211.411 36.4852C210.149 40.3655 208.445 44.0967 207.137 47.9616C206.529 49.7604 205.514 49.1899 204.629 48.6554C203.691 48.0901 201.415 48.6452 202.296 46.2861C204.299 40.9462 206.323 35.6166 208.311 30.2767C208.594 29.516 208.949 29.0175 209.784 29.4647C210.906 30.0557 212.456 29.9169 213.224 31.3149Z" fill="#02BF39"/>
<path d="M60.1178 107.718C59.7779 109.99 59.4226 112.256 59.1033 114.528C58.9591 115.581 58.7995 116.445 57.4657 116.748C56.2298 117.026 55.2307 117.303 54.2832 116.101C52.867 114.302 51.3067 112.611 49.8081 110.874C50.7865 110.591 51.765 110.082 52.7486 110.072C55.4779 110.031 57.3885 107.61 60.1178 107.718Z" fill="#02BF39"/>
<path d="M82.9927 198.122C79.8771 196.6 77.6267 199.432 74.8716 199.735C75.1703 198.414 75.6286 197.099 75.7316 195.763C75.8449 194.303 76.7667 194.025 77.8739 193.65C79.2025 193.198 79.9852 193.774 80.665 194.76C81.4477 195.881 82.2202 197.001 82.9927 198.122Z" fill="#02BF39"/>
<path d="M232.602 207.917C233.297 208.529 234.363 206.586 234.626 207.969C234.929 209.598 235.882 211.499 234.327 213.005C233.431 213.874 232.293 214.491 230.923 215.457C230.815 212.512 230.593 209.968 232.643 207.876C232.643 207.881 232.602 207.917 232.602 207.917Z" fill="#02BF39"/>
<path d="M217.771 26.2009C213.517 29.6598 213.316 29.6958 209.418 27.861C211.91 24.2119 212.843 24.0115 217.771 26.2009Z" fill="#02BF39"/>
<path d="M116.836 55.9587C117.918 56.6217 119.535 54.6532 120.493 57.3412C121.404 59.9006 119.612 59.8235 118.67 60.687C117.217 62.0181 116.857 60.3889 116.275 59.6591C115.544 58.7443 114.689 57.7883 115.307 56.4366L115.281 56.4623C115.997 56.8529 116.574 56.817 116.862 55.933L116.836 55.9587Z" fill="#02BF39"/>
<path d="M83.0029 209.408C84.7178 209.896 85.8456 208.822 87.0249 207.897C87.2514 208.534 87.2566 209.166 87.0042 209.793C85.6499 209.891 84.2234 210.698 83.0029 209.408Z" fill="#02BF39"/>
<path d="M89.0537 216.11C89.6974 216.325 90.3566 216.505 90.9797 216.762C91.3968 216.932 92.1332 216.526 92.195 217.287C92.2259 217.651 92.0096 218.176 91.7264 218.397C91.1805 218.828 90.6913 218.664 90.2536 218.032C89.9909 217.657 89.4348 217.487 89.0073 217.225C89.0279 216.86 89.0382 216.485 89.0537 216.11Z" fill="#02BF39"/>
<path d="M73.7386 207.403C74.1454 207.45 74.7582 207.46 74.7633 207.886C74.7788 208.637 74.0372 208.292 73.6201 208.426C73.6665 208.082 73.7025 207.743 73.7386 207.403Z" fill="#02BF39"/>
<path d="M89.1669 210.965C89.5582 211.001 90.1608 210.919 90.202 211.345C90.2689 212.008 89.5788 211.911 89.1411 212.024C89.1463 211.674 89.1566 211.32 89.1669 210.965Z" fill="#02BF39"/>
<path d="M95.4496 211.392C94.5536 211.397 94.2961 210.801 94.1982 210.055C94.6154 210.503 95.0325 210.95 95.4496 211.392Z" fill="#02BF39"/>
<path d="M83.8888 200.229C83.0957 199.951 83.0803 199.576 83.7549 199.119C83.8012 199.489 83.8424 199.859 83.8888 200.229Z" fill="#02BF39"/>
<path d="M88.9609 219.661C89.4244 219.964 89.5377 220.314 89.1 220.73C89.0536 220.376 89.0073 220.021 88.9609 219.661Z" fill="#02BF39"/>
<path d="M173.53 139.09C174.24 137.974 174.029 136.813 173.71 135.636C173.035 133.174 172.376 130.702 171.722 128.235C171.222 126.359 171.506 124.668 173.015 123.332C175.147 121.446 177.541 121.98 178.463 124.653C179.405 127.377 180.276 130.126 180.801 132.974C181.342 135.924 183.438 138.103 185.961 135.43C186.738 135.641 187.223 136.145 187.439 136.916C183.525 137.944 179.606 138.956 175.698 139.999C174.698 140.277 174.091 139.773 173.53 139.09Z" fill="#02BF39"/>
<path d="M274.567 96.4474C274.994 96.2573 275.55 96.2007 275.653 96.6787C276.23 99.3307 277.502 101.828 277.43 104.629C277.368 106.973 276.071 108.32 273.918 108.7C271.791 109.08 270.782 107.523 270.267 105.817C269.608 103.627 269.191 101.361 268.67 99.1302C270.241 98.4313 271.817 97.7271 273.388 97.0282C273.779 96.8329 274.175 96.6376 274.567 96.4474Z" fill="#02BF39"/>
<path d="M240.573 110.396C239.646 108.237 239.209 105.945 238.781 103.653C240.352 103.031 241.917 102.409 243.632 102.296C242.731 105.349 242.479 108.402 243.699 111.439C243.864 111.856 243.895 112.251 243.534 112.591C242.638 111.743 242.494 109.877 240.573 110.396Z" fill="#02BF39"/>
<path d="M19.6563 146.264C20.7892 145.067 22.2054 144.687 23.807 144.856C23.8018 145.149 23.7967 145.442 23.7864 145.74C23.0809 145.935 22.3805 146.136 21.675 146.331C21.6544 146.388 21.608 146.449 21.6183 146.501C21.6389 146.614 21.6853 146.727 21.7213 146.835L21.6956 146.737C22.0612 147.277 23.0036 147.852 22.4526 148.423C21.8398 149.06 20.6965 149.698 19.9292 149.559C18.9559 149.379 17.7406 149.507 16.6592 148.515C17.9827 147.976 20.7583 149.348 19.6563 146.264Z" fill="#02BF39"/>
<path d="M253.355 137.255C252.685 136.864 253.133 136.206 252.799 135.816C252.325 135.266 251.933 134.649 252.448 133.986C252.994 133.282 253.504 134.084 254.04 134.156C254.452 134.212 254.879 134.13 255.301 134.114C255.961 134.084 256.867 133.801 256.934 134.772C256.996 135.661 256.079 135.415 255.543 135.43C254.344 135.456 254.374 136.838 253.355 137.255Z" fill="#02BF39"/>
<path d="M185.219 99.9216C186.048 99.7263 186.522 100.61 186.12 100.77C185.029 101.206 184.555 102.671 183.237 102.507C182.48 102.414 181.594 101.947 181.558 101.176C181.501 99.9678 182.583 100.502 183.247 100.394C183.911 100.286 184.56 100.081 185.219 99.9216Z" fill="#02BF39"/>
<path d="M13.9866 153.49C13.2296 153.552 12.2409 154.415 11.834 153.11C11.5148 152.082 12.4984 151.645 13.1627 151.178C13.6107 150.864 14.2956 150.371 14.7333 151.064C15.3667 152.067 14.6406 152.812 13.9712 153.501C13.9763 153.501 13.9866 153.49 13.9866 153.49Z" fill="#02BF39"/>
<path d="M195.55 133.955C195.508 134.351 195.462 134.747 195.421 135.137C194.437 135.333 193.474 135.682 192.45 135.487C191.559 134.464 192.455 133.806 192.944 133.066C193.907 133.087 194.721 133.539 195.55 133.955Z" fill="#02BF39"/>
<path d="M18.153 155.418C17.5968 155.587 17.0406 155.757 16.4845 155.926C16.3918 155.181 16.8089 153.932 15.2485 154.57C14.0384 155.063 13.9457 154.39 13.9869 153.495L13.9766 153.506C15.6863 153.444 17.7307 152.663 18.153 155.418Z" fill="#02BF39"/>
<path d="M286.766 109.908C286.565 111.213 286.153 112.015 285.067 112.262C284.845 112.313 284.289 111.922 284.31 111.83C284.562 110.648 285.509 110.319 286.766 109.908Z" fill="#02BF39"/>
<path d="M14.9752 144.764C14.4963 144.789 14.0174 144.82 13.5385 144.846C13.4715 144.774 13.4046 144.702 13.3428 144.625C13.4767 144.316 13.59 143.998 13.7445 143.705C14.3264 142.62 15.2997 142.456 16 143.309C16.8961 144.399 14.7126 143.813 15.001 144.753C15.0061 144.748 14.9752 144.764 14.9752 144.764Z" fill="#02BF39"/>
<path d="M96.0935 162.366C95.836 162.32 95.5837 162.279 95.3262 162.233C95.1511 160.619 96.763 160.722 97.4788 160.49C98.4212 160.182 97.8753 161.215 97.8238 161.713L97.8341 161.708C97.2522 161.703 96.7012 161.78 96.2737 162.233L96.0935 162.366Z" fill="#02BF39"/>
<path d="M290.181 86.4203C288.414 86.5077 287.812 85.5312 287.091 84.7191C288.316 84.6369 289.212 85.1714 290.181 86.4203Z" fill="#02BF39"/>
<path d="M12.9414 147.508C12.9414 147.965 12.9414 148.423 12.9414 148.88L12.962 148.865C11.9166 148.968 11.3398 148.279 11.3656 147.446C11.3913 146.501 12.3749 146.974 12.9362 146.814C12.9414 147.045 12.9414 147.277 12.9414 147.508Z" fill="#02BF39"/>
<path d="M176.423 98.755C176.295 99.2227 176.238 99.8034 175.553 99.7212C175.162 99.6749 175.079 99.3049 175.157 98.9606C175.265 98.4929 175.316 97.9018 176.006 97.984C176.387 98.0303 176.465 98.3952 176.423 98.755Z" fill="#02BF39"/>
<path d="M95.8516 163.831C95.934 163.343 96.0112 162.855 96.0936 162.366L96.2687 162.228C96.7888 162.397 97.3089 162.572 97.8291 162.741L97.8188 162.731C97.5252 163.749 96.7013 163.81 95.8516 163.831Z" fill="#02BF39"/>
<path d="M13.5386 144.846C13.3274 145.478 12.9618 145.894 12.2357 145.637C12.0915 145.586 12.0349 145.277 11.937 145.087C12.4056 144.933 12.8743 144.779 13.3429 144.625C13.4098 144.702 13.4716 144.774 13.5386 144.846Z" fill="#02BF39"/>
<path d="M305.439 68.9513C305.264 69.1825 305.12 69.5063 305.006 69.496C304.502 69.4549 304.414 68.9924 304.327 68.612C304.26 68.3242 304.517 68.0827 304.77 68.2112C305.027 68.3448 305.192 68.6634 305.439 68.9513Z" fill="#02BF39"/>
<path d="M172.438 101.397C172.705 101.582 172.983 101.674 173.066 101.854C173.241 102.25 173.004 102.512 172.602 102.455C172.407 102.43 172.154 102.193 172.098 102.003C172.051 101.864 172.288 101.643 172.438 101.397Z" fill="#02BF39"/>
<path d="M14.9805 147.369C15.1504 147.344 15.3204 147.323 15.4955 147.297C15.4903 147.76 15.8508 148.289 15.2895 148.649C15.2019 148.706 14.9393 148.629 14.8621 148.531C14.5479 148.125 14.8415 147.75 14.9805 147.369Z" fill="#02BF39"/>
<path d="M98.9822 161.821C98.9513 162.119 98.9204 162.418 98.8843 162.716C98.529 162.721 98.1737 162.731 97.8184 162.736L97.8287 162.746C97.8287 162.402 97.8287 162.053 97.8287 161.708C97.8287 161.708 97.8235 161.713 97.8184 161.713C98.2097 161.749 98.596 161.785 98.9822 161.821Z" fill="#02BF39"/>
<path d="M95.218 162.71C95.115 163.301 94.9914 163.851 94.2241 163.281C94.5537 163.091 94.8833 162.901 95.218 162.71Z" fill="#02BF39"/>
<path d="M171.197 103.113C171.109 103.211 171.022 103.303 170.934 103.401C170.862 103.293 170.775 103.196 170.728 103.077C170.718 103.047 170.836 102.913 170.862 102.923C170.981 102.964 171.084 103.047 171.197 103.113Z" fill="#02BF39"/>
<path d="M251.748 82.4424C251.789 82.5092 251.882 82.6223 251.867 82.6377C251.769 82.7405 251.65 82.8176 251.537 82.9049C251.496 82.8381 251.403 82.7199 251.419 82.7096C251.517 82.6068 251.635 82.5298 251.748 82.4424Z" fill="#02BF39"/>
<path d="M250.492 81.255C250.265 81.0391 250.039 80.8284 249.812 80.6125C249.915 80.5097 250.013 80.3196 250.116 80.3196C250.543 80.3196 250.61 80.6845 250.708 80.998C250.636 81.0802 250.564 81.1676 250.492 81.255Z" fill="#02BF39"/>
<path d="M250.713 80.9929C250.832 81.1368 250.95 81.2807 251.068 81.4246C250.878 81.3681 250.682 81.3064 250.492 81.2499C250.564 81.1677 250.636 81.0803 250.713 80.9929Z" fill="#02BF39"/>
<path d="M302.993 69.5422L303.194 69.4753L303.163 69.6604L302.993 69.5422Z" fill="#02BF39"/>
<path d="M12.9414 148.88C13.0238 148.983 13.1062 149.091 13.1886 149.194C13.1113 149.086 13.0341 148.973 12.9569 148.865C12.962 148.865 12.9414 148.88 12.9414 148.88Z" fill="#02BF39"/>
<path d="M196.029 134.073C195.859 134.043 195.694 134.012 195.524 133.981C195.709 133.822 195.895 133.667 196.08 133.508C196.065 133.693 196.049 133.883 196.029 134.073Z" fill="#02BF39"/>
<path d="M184.709 190.027C185.26 190.119 185.667 190.808 185.466 191.271C184.972 192.422 184.246 193.486 183.54 194.534C183.309 194.879 182.917 194.693 182.696 194.375C182.438 194.005 182.243 193.455 182.706 193.26C184.225 192.638 182.536 190.304 184.709 190.027Z" fill="#02BF39"/>
<path d="M151.916 189.497C152.457 189.554 152.91 189.79 152.993 190.356C153.09 190.988 152.632 191.296 152.091 191.271C151.53 191.24 151.247 190.757 151.17 190.237C151.092 189.718 151.417 189.492 151.916 189.497Z" fill="#02BF39"/>
<path d="M92.3546 211.911C91.8139 211.772 91.4122 211.515 91.6079 210.878C91.7109 210.543 92.0148 210.24 92.3392 210.477C92.6482 210.703 92.916 211.104 93.0138 211.479C93.1477 211.998 92.6688 211.895 92.3546 211.911Z" fill="#02BF39"/>
<path d="M188.891 244.089C188.633 244.952 188.185 245.348 187.413 245.199C187.31 245.179 187.161 244.752 187.228 244.624C187.537 244.079 188.036 243.858 188.891 244.089Z" fill="#02BF39"/>
<path d="M206.529 240.995L206.657 240.954L206.641 241.071L206.529 240.995Z" fill="#02BF39"/>
<path d="M73.7075 157.756C73.6663 160.48 71.73 162.819 69.5826 162.731C66.5082 162.613 64.0209 159.935 64.0055 156.728C63.99 153.876 66.0602 151.486 68.5217 151.517C71.2768 151.558 73.7538 154.534 73.7075 157.756Z" fill="#02BF39"/>
<path d="M251.666 112.976C249.179 112.801 248.175 111.347 247.783 107.358C248.803 107.358 249.889 107.353 250.61 106.552C252.439 104.511 254.473 104.609 256.677 105.786C257.552 107.816 257.799 109.882 256.816 111.938C256.131 113.377 254.807 113.983 253.319 114.179C252.454 114.292 251.573 114.173 251.604 112.935C251.836 112.842 251.841 112.791 251.63 112.786C251.645 112.847 251.656 112.914 251.666 112.976Z" fill="#02BF39"/>
<path d="M256.677 105.786C254.473 104.609 252.439 104.511 250.61 106.551C249.889 107.353 248.808 107.358 247.783 107.358C247.51 104.413 248.617 102.538 251.022 101.864C253.16 101.273 255.158 102.656 256.677 105.786Z" fill="#02BF39"/>
<path d="M200.875 124.288C200.772 127.13 199.53 128.893 197.393 129.232C195.086 129.602 193.047 128.312 192.022 125.814C191.399 124.298 191.013 122.726 191.219 121.071C191.461 119.148 192.347 117.643 194.329 117.113C196.266 116.599 197.852 117.293 199.098 118.814C200.251 120.217 200.947 122.366 200.875 124.288Z" fill="#02BF39"/>
<path d="M297.879 99.2174C297.884 101.803 295.382 104.306 293.049 104.136C291.906 104.054 290.87 103.571 290.386 102.43C289.871 101.212 290.376 100.179 291.385 99.5361C292.966 98.5236 294.558 97.3004 296.319 96.843C298.59 96.2519 297.174 98.6264 297.879 99.2174Z" fill="#02BF39"/>
<path d="M92.6638 147.313C92.6741 144.347 95.8978 142.091 98.5345 143.258C99.827 143.828 100.965 144.877 101.037 146.238C101.109 147.59 99.4923 147.051 98.6786 147.405C97.2985 148.012 95.7691 148.279 94.3066 148.705C93.0397 149.081 92.5659 148.546 92.6638 147.313Z" fill="#02BF39"/>
<path d="M21.6802 146.331C21.7317 146.496 21.7471 146.665 21.7265 146.84C21.6905 146.727 21.6441 146.619 21.6235 146.506C21.6132 146.449 21.6596 146.388 21.6802 146.331Z" fill="#02BF39"/>
<path d="M311.33 75.9512C311.444 76.352 311.603 76.7426 311.66 77.1487C311.794 78.1406 311.274 78.7779 310.362 79.0194C309.528 79.2404 308.853 78.8601 308.472 78.1046C307.875 76.9174 309.343 76.9277 309.688 76.2493C309.837 75.9512 310.769 76.0488 311.351 75.9666C311.346 75.9615 311.33 75.9512 311.33 75.9512Z" fill="#02BF39"/>
<path d="M97.8289 161.703C97.8289 162.048 97.8289 162.397 97.8289 162.742C97.3088 162.572 96.7887 162.397 96.2686 162.228C96.696 161.775 97.247 161.698 97.8289 161.703Z" fill="#02BF39"/>
</g>
<defs>
<clipPath id="clip0">
<rect width="344" height="255" fill="white"/>
</clipPath>
</defs>
</svg>
